<svg width="767" height="427" viewBox="0 0 767 427" fill="none" xmlns="http://www.w3.org/2000/svg">
    <path
        d="M1 421.842V4.52783C1 2.31869 2.79086 0.527832 5 0.527832H212.943C214.001 0.527832 215.016 0.94685 215.765 1.69319L389.768 174.932C391.329 176.486 393.852 176.486 395.413 174.932L569.415 1.69319C570.165 0.946847 571.18 0.527832 572.238 0.527832H762.381C764.59 0.527832 766.381 2.3187 766.381 4.52784V421.842C766.381 424.051 764.59 425.842 762.381 425.842H467.789C465.579 425.842 463.789 424.051 463.789 421.842V376.677C463.789 374.468 461.998 372.677 459.789 372.677H452.71C451.716 372.677 450.758 373.047 450.022 373.715L393.734 424.803C392.998 425.471 392.04 425.842 391.046 425.842H376.292C375.324 425.842 374.389 425.491 373.66 424.854L315.05 373.665C314.322 373.028 313.387 372.677 312.419 372.677H307.593C305.383 372.677 303.593 374.468 303.593 376.677V421.842C303.593 424.051 301.802 425.842 299.593 425.842H5C2.79086 425.842 1 424.051 1 421.842Z"
        stroke="white" vector-effect="non-scaling-stroke" stroke-width="1"/>
</svg>