<svg id="Layer_1" data-name="Layer 1" xmlns="http://www.w3.org/2000/svg" viewBox="0 0 495 427"><path d="M489.88,426.78H5.12a4.51,4.51,0,0,1-4.5-4.5V319.17a4.51,4.51,0,0,1,4.5-4.5h278a3.5,3.5,0,0,0,2.35-6.1L184.32,216.92a4.49,4.49,0,0,1-1.48-3.33,4.54,4.54,0,0,1,1.46-3.33l101.23-92.63a3.5,3.5,0,0,0-2.37-6.08H5.12a4.51,4.51,0,0,1-4.5-4.5V4.72A4.51,4.51,0,0,1,5.12.22H489.88a4.51,4.51,0,0,1,4.5,4.5V105.48a4.54,4.54,0,0,1-1.34,3.21L389,211a3.51,3.51,0,0,0,.06,5.05L493,313.62a4.53,4.53,0,0,1,1.42,3.28V422.28A4.51,4.51,0,0,1,489.88,426.78Z"/></svg>