<svg width="495" height="427" viewBox="0 0 495 427" fill="none" xmlns="http://www.w3.org/2000/svg">
<path d="M1.49484 106.863V4.52783C1.49484 2.31869 3.28569 0.527832 5.49483 0.527832H490.253C492.462 0.527832 494.253 2.31869 494.253 4.52783V105.292C494.253 106.364 493.822 107.391 493.058 108.143L389.052 210.489C387.434 212.082 387.464 214.701 389.12 216.256L492.991 313.794C493.796 314.55 494.253 315.605 494.253 316.709V422.094C494.253 424.303 492.462 426.094 490.253 426.094H5.49228C3.28311 426.094 1.49223 424.303 1.49228 422.094L1.49474 318.978C1.4948 316.769 3.28564 314.978 5.49475 314.978H283.465C287.124 314.978 288.862 310.472 286.151 308.015L185.026 216.357C183.28 214.775 183.274 212.033 185.012 210.443L286.238 117.814C288.93 115.35 287.187 110.863 283.537 110.863H5.49484C3.2857 110.863 1.49484 109.072 1.49484 106.863Z" stroke="white" vector-effect="non-scaling-stroke" stroke-width="1"/>
</svg>
