<svg width="525" height="430" viewBox="0 0 525 430" fill="none" xmlns="http://www.w3.org/2000/svg">
<path d="M5.31248 1H520.002C522.211 1 524.002 2.79086 524.002 5V109.572C524.002 111.781 522.211 113.572 520.002 113.572H218.065C215.856 113.572 214.065 115.362 214.065 117.572V314C214.065 316.209 215.856 318 218.065 318H520.002C522.211 318 524.002 319.791 524.002 322V425.094C524.002 427.303 522.211 429.094 520.002 429.094H5.3125C3.10336 429.094 1.3125 427.303 1.3125 425.094V5C1.3125 2.79086 3.10335 1 5.31248 1Z" stroke="white" vector-effect="non-scaling-stroke" stroke-width="1"/>
</svg>
