<svg id="Layer_1" data-name="Layer 1" xmlns="http://www.w3.org/2000/svg" viewBox="0 0 834 430">
    <path
        d="M829.19,429.5H517.5a4.49,4.49,0,0,1-3.18-1.31L350.7,265a3.5,3.5,0,0,0-6,2.48V425a4.51,4.51,0,0,1-4.5,4.5H5A4.51,4.51,0,0,1,.5,425V5A4.51,4.51,0,0,1,5,.5H340.23a4.51,4.51,0,0,1,4.5,4.5V146.11a3.5,3.5,0,0,0,5.84,2.61L514.37,1.65a4.48,4.48,0,0,1,3-1.15H829.23a4.41,4.41,0,0,1,4.22,2.93,4.47,4.47,0,0,1-1.28,5L594.85,212.84a3.52,3.52,0,0,0-1.21,2.66,3.46,3.46,0,0,0,1.22,2.65L832.12,421.58a4.5,4.5,0,0,1-2.93,7.92Z" />
</svg>