<svg width="834" height="430" viewBox="0 0 834 430" fill="none" xmlns="http://www.w3.org/2000/svg">
    <path
        d="M1 425V18.12V5C1 2.79086 2.79086 1 5 1H340.227C342.436 1 344.227 2.79086 344.227 4.99999V146.113C344.227 149.574 348.324 151.402 350.9 149.089L514.701 2.02361C515.435 1.36455 516.387 1 517.373 1H829.228C832.937 1 834.648 5.61001 831.839 8.03058L594.526 212.462C592.671 214.061 592.674 216.936 594.533 218.53L831.793 421.963C834.612 424.38 832.903 429 829.19 429H517.495C516.436 429 515.42 428.58 514.67 427.832L351.052 264.609C348.531 262.093 344.227 263.879 344.227 267.44V425C344.227 427.209 342.436 429 340.227 429H5C2.79086 429 1 427.209 1 425Z"
        stroke="white" vector-effect="non-scaling-stroke" stroke-width="1" />
</svg>