<svg width="106" height="106" viewBox="0 0 106 106" fill="none" xmlns="http://www.w3.org/2000/svg">
    <path
        d="M104.833 52.6665C104.833 81.4772 81.4772 104.833 52.6665 104.833C23.8557 104.833 0.5 81.4772 0.5 52.6665C0.5 23.8557 23.8557 0.5 52.6665 0.5C81.4772 0.5 104.833 23.8557 104.833 52.6665Z"
        fill="#2C7AE2" stroke="#FFC574" />
    <path
        d="M31.6063 34.8729V38.4422H30.3026V30.1137H31.6063V33.6831H33.0878V30.1137H34.4152V38.4422H33.0878V34.8729H31.6063Z"
        fill="#FFC574" />
    <path
        d="M38.6079 30.1137L39.9353 38.4422H38.6197L38.3945 36.9312H36.7945L36.5693 38.4422H35.3723L36.6997 30.1137H38.6079ZM37.5886 31.589L36.9605 35.8009H38.2168L37.5886 31.589Z"
        fill="#FFC574" />
    <path
        d="M45.9587 39.5607H44.6669V38.4422H41.8817V39.5607H40.6135V37.2762H41.1232C41.3128 37.0383 41.4195 36.6774 41.4432 36.1935L41.7395 30.1137H45.3899V37.2762H45.9587V39.5607ZM42.9602 31.3035L42.7232 36.1697C42.6916 36.7012 42.5691 37.07 42.3558 37.2762H44.0624V31.3035H42.9602Z"
        fill="#FFC574" />
    <path
        d="M48.3443 31.3035V33.6236H50.1339V34.8134H48.3443V37.2524H50.5962V38.4422H47.0406V30.1137H50.5962V31.3035H48.3443Z"
        fill="#FFC574" />
    <path
        d="M55.5167 30.1137V33.4808L57.0574 30.1137H58.3611L56.7611 33.4927L58.3611 38.4422H57.0219L55.8367 34.7539L55.5167 35.3845V38.4422H54.2248V35.3845L53.9048 34.742L52.7196 38.4422H51.3803L52.9922 33.5284L51.3803 30.1137H52.6841L54.2248 33.4808V30.1137H55.5167Z"
        fill="#FFC574" />
    <path
        d="M60.5717 34.8729V38.4422H59.268V30.1137H60.5717V33.6831H62.0532V30.1137H63.3806V38.4422H62.0532V34.8729H60.5717Z"
        fill="#FFC574" />
    <path
        d="M66.6014 38.4422H64.6814V30.1137H65.9851V33.2428H66.6014C67.8973 33.2428 68.5452 33.9289 68.5452 35.3012V36.3839C68.5452 37.7561 67.8973 38.4422 66.6014 38.4422ZM65.9851 37.2524H66.6014C66.8148 37.2524 66.9728 37.193 67.0755 37.074C67.1861 36.955 67.2414 36.7527 67.2414 36.4672V35.2179C67.2414 34.9323 67.1861 34.7301 67.0755 34.6111C66.9728 34.4921 66.8148 34.4326 66.6014 34.4326H65.9851V37.2524ZM70.5955 38.4422H69.2918V30.1137H70.5955V38.4422Z"
        fill="#FFC574" />
    <path
        d="M73.2397 38.4422L74.3301 34.623L74.8634 32.5765V38.4422H76.0368V30.1137H74.6027L73.536 33.5522L73.0619 35.3845V30.1137H71.9005V38.4422H73.2397ZM74.579 28.2576H75.3731C75.3731 28.67 75.2545 28.9952 75.0175 29.2332C74.7805 29.4632 74.4368 29.5782 73.9864 29.5782C73.5439 29.5782 73.2081 29.4632 72.979 29.2332C72.7577 29.0032 72.6392 28.678 72.6234 28.2576H73.4293C73.4451 28.4717 73.4965 28.6185 73.5834 28.6978C73.6703 28.7692 73.8047 28.8049 73.9864 28.8049C74.176 28.8049 74.3182 28.7652 74.4131 28.6859C74.5079 28.6066 74.5632 28.4638 74.579 28.2576Z"
        fill="#FFC574" />
    <path
        d="M29.5603 46.753V46.289C29.5603 45.932 29.501 45.6861 29.3825 45.5513C29.2719 45.4085 29.106 45.3371 28.8847 45.3371C28.4264 45.3371 28.1973 45.6108 28.1973 46.1581V46.8363H27.0003V46.2176C27.0003 45.5434 27.1622 45.0318 27.4862 44.6827C27.8101 44.3258 28.2882 44.1473 28.9203 44.1473C29.5524 44.1473 30.0344 44.3298 30.3662 44.6946C30.6981 45.0516 30.864 45.5672 30.864 46.2414V46.4555C30.864 47.3439 30.5598 47.915 29.9514 48.1689C30.5598 48.4385 30.864 49.0215 30.864 49.9179V50.5723C30.864 51.2465 30.6981 51.766 30.3662 52.1309C30.0344 52.4878 29.5524 52.6663 28.9203 52.6663C28.2882 52.6663 27.8062 52.4878 27.4743 52.1309C27.1425 51.766 26.9766 51.2465 26.9766 50.5723V49.6561H28.2092V50.6555C28.2092 51.2028 28.4343 51.4765 28.8847 51.4765C29.106 51.4765 29.2719 51.4091 29.3825 51.2742C29.501 51.1315 29.5603 50.8856 29.5603 50.5366V49.8822C29.5603 49.5014 29.4931 49.2317 29.3588 49.0731C29.2245 48.9065 29.0072 48.8232 28.7069 48.8232H28.3869V47.6334H28.7781C29.0388 47.6334 29.2324 47.566 29.3588 47.4312C29.4931 47.2963 29.5603 47.0703 29.5603 46.753Z"
        fill="#FFC574" />
    <path
        d="M34.9942 44.2425L36.3216 52.5711H35.006L34.7809 51.0601H33.1809L32.9557 52.5711H31.7586L33.086 44.2425H34.9942ZM33.9749 45.7179L33.3468 49.9298H34.6031L33.9749 45.7179Z"
        fill="#FFC574" />
    <path
        d="M39.8325 49.4657H41.0651V50.5723C41.0651 51.2465 40.8991 51.766 40.5673 52.1309C40.2354 52.4878 39.7534 52.6663 39.1213 52.6663C38.4892 52.6663 38.0073 52.4878 37.6754 52.1309C37.3436 51.766 37.1776 51.2465 37.1776 50.5723V46.2414C37.1776 45.5672 37.3436 45.0516 37.6754 44.6946C38.0073 44.3298 38.4892 44.1473 39.1213 44.1473C39.7534 44.1473 40.2354 44.3298 40.5673 44.6946C40.8991 45.0516 41.0651 45.5672 41.0651 46.2414V47.0504H39.8325V46.1581C39.8325 45.6108 39.6073 45.3371 39.1569 45.3371C38.7065 45.3371 38.4813 45.6108 38.4813 46.1581V50.6555C38.4813 51.1949 38.7065 51.4646 39.1569 51.4646C39.6073 51.4646 39.8325 51.1949 39.8325 50.6555V49.4657Z"
        fill="#FFC574" />
    <path d="M41.8324 45.4323V44.2425H45.862V45.4323H44.4991V52.5711H43.1954V45.4323H41.8324Z" fill="#FFC574" />
    <path
        d="M48.7118 44.2425C50.0076 44.2425 50.6555 44.9286 50.6555 46.3009V47.3836C50.6555 48.7558 50.0076 49.4419 48.7118 49.4419H48.0955V52.5711H46.7918V44.2425H48.7118ZM48.7118 45.4323H48.0955V48.2521H48.7118C48.9251 48.2521 49.0831 48.1927 49.1858 48.0737C49.2965 47.9547 49.3518 47.7524 49.3518 47.4669V46.2176C49.3518 45.932 49.2965 45.7298 49.1858 45.6108C49.0831 45.4918 48.9251 45.4323 48.7118 45.4323Z"
        fill="#FFC574" />
    <path
        d="M52.812 46.1581V50.6555C52.812 51.2028 53.0372 51.4765 53.4875 51.4765C53.9379 51.4765 54.1631 51.2028 54.1631 50.6555V46.1581C54.1631 45.6108 53.9379 45.3371 53.4875 45.3371C53.0372 45.3371 52.812 45.6108 52.812 46.1581ZM51.5083 50.5723V46.2414C51.5083 45.5751 51.6781 45.0595 52.0179 44.6946C52.3577 44.3298 52.8475 44.1473 53.4875 44.1473C54.1275 44.1473 54.6174 44.3298 54.9572 44.6946C55.2969 45.0595 55.4668 45.5751 55.4668 46.2414V50.5723C55.4668 51.2385 55.2969 51.7541 54.9572 52.119C54.6174 52.4839 54.1275 52.6663 53.4875 52.6663C52.8475 52.6663 52.3577 52.4839 52.0179 52.119C51.6781 51.7541 51.5083 51.2385 51.5083 50.5723Z"
        fill="#FFC574" />
    <path
        d="M58.0089 52.5711L59.0992 48.7519L59.6326 46.7054V52.5711H60.8059V44.2425H59.3718L58.3051 47.681L57.8311 49.5133V44.2425H56.6696V52.5711H58.0089ZM59.3481 42.3864H60.1422C60.1422 42.7989 60.0237 43.1241 59.7866 43.3621C59.5496 43.5921 59.2059 43.7071 58.7555 43.7071C58.3131 43.7071 57.9772 43.5921 57.7481 43.3621C57.5269 43.132 57.4084 42.8068 57.3926 42.3864H58.1985C58.2143 42.6006 58.2656 42.7473 58.3526 42.8267C58.4395 42.898 58.5738 42.9337 58.7555 42.9337C58.9452 42.9337 59.0874 42.8941 59.1822 42.8148C59.277 42.7354 59.3323 42.5927 59.3481 42.3864Z"
        fill="#FFC574" />
    <path
        d="M68.2692 44.2425V51.4051H68.8499V53.6895H67.5818V52.5711H62.1062V44.2425H63.4099V51.3813H64.5358V44.2425H65.8395V51.3813H66.9655V44.2425H68.2692Z"
        fill="#FFC574" />
    <path
        d="M72.3451 48.7519L71.2548 52.5711H69.9155V44.2425H71.077V49.5133L71.5511 47.681L72.6177 44.2425H74.0518V52.5711H72.8785V46.7054L72.3451 48.7519Z"
        fill="#FFC574" />
    <path
        d="M78.3038 52.5711L77.0356 49.2516L76.6327 50.013V52.5711H75.3289V44.2425H76.6327V47.8714L78.3393 44.2425H79.643L77.8297 47.9547L79.643 52.5711H78.3038Z"
        fill="#FFC574" />
    <path
        d="M40.4601 58.3714C41.7559 58.3714 42.4038 59.0575 42.4038 60.4297V61.5125C42.4038 62.8847 41.7559 63.5708 40.4601 63.5708H39.8438V66.7H38.5401V58.3714H40.4601ZM40.4601 59.5612H39.8438V62.381H40.4601C40.6734 62.381 40.8315 62.3215 40.9342 62.2025C41.0448 62.0836 41.1001 61.8813 41.1001 61.5957V60.3464C41.1001 60.0609 41.0448 59.8586 40.9342 59.7396C40.8315 59.6207 40.6734 59.5612 40.4601 59.5612Z"
        fill="#FFC574" />
    <path
        d="M44.5603 60.287V64.7844C44.5603 65.3317 44.7855 65.6054 45.2359 65.6054C45.6862 65.6054 45.9114 65.3317 45.9114 64.7844V60.287C45.9114 59.7397 45.6862 59.466 45.2359 59.466C44.7855 59.466 44.5603 59.7397 44.5603 60.287ZM43.2566 64.7011V60.3702C43.2566 59.704 43.4265 59.1884 43.7662 58.8235C44.106 58.4586 44.5959 58.2762 45.2359 58.2762C45.8759 58.2762 46.3657 58.4586 46.7055 58.8235C47.0453 59.1884 47.2151 59.704 47.2151 60.3702V64.7011C47.2151 65.3674 47.0453 65.883 46.7055 66.2478C46.3657 66.6127 45.8759 66.7952 45.2359 66.7952C44.5959 66.7952 44.106 66.6127 43.7662 66.2478C43.4265 65.883 43.2566 65.3674 43.2566 64.7011Z"
        fill="#FFC574" />
    <path
        d="M50.9661 63.5946H52.1987V64.7011C52.1987 65.3753 52.0328 65.8949 51.7009 66.2598C51.369 66.6167 50.8871 66.7952 50.255 66.7952C49.6229 66.7952 49.1409 66.6167 48.809 66.2598C48.4772 65.8949 48.3113 65.3753 48.3113 64.7011V60.3702C48.3113 59.696 48.4772 59.1804 48.809 58.8235C49.1409 58.4586 49.6229 58.2762 50.255 58.2762C50.8871 58.2762 51.369 58.4586 51.7009 58.8235C52.0328 59.1804 52.1987 59.696 52.1987 60.3702V61.1793H50.9661V60.287C50.9661 59.7397 50.7409 59.466 50.2905 59.466C49.8401 59.466 49.615 59.7397 49.615 60.287V64.7844C49.615 65.3238 49.8401 65.5935 50.2905 65.5935C50.7409 65.5935 50.9661 65.3238 50.9661 64.7844V63.5946Z"
        fill="#FFC574" />
    <path
        d="M55.8934 63.5946H57.126V64.7011C57.126 65.3753 56.9601 65.8949 56.6282 66.2598C56.2964 66.6167 55.8144 66.7952 55.1823 66.7952C54.5502 66.7952 54.0682 66.6167 53.7364 66.2598C53.4045 65.8949 53.2386 65.3753 53.2386 64.7011V60.3702C53.2386 59.696 53.4045 59.1804 53.7364 58.8235C54.0682 58.4586 54.5502 58.2762 55.1823 58.2762C55.8144 58.2762 56.2964 58.4586 56.6282 58.8235C56.9601 59.1804 57.126 59.696 57.126 60.3702V61.1793H55.8934V60.287C55.8934 59.7397 55.6682 59.466 55.2179 59.466C54.7675 59.466 54.5423 59.7397 54.5423 60.287V64.7844C54.5423 65.3238 54.7675 65.5935 55.2179 65.5935C55.6682 65.5935 55.8934 65.3238 55.8934 64.7844V63.5946Z"
        fill="#FFC574" />
    <path
        d="M60.7022 62.8807L59.6119 66.7H58.2726V58.3714H59.4341V63.6422L59.9082 61.8099L60.9748 58.3714H62.4089V66.7H61.2356V60.8343L60.7022 62.8807Z"
        fill="#FFC574" />
    <path
        d="M66.1157 62.8807L65.0253 66.7H63.6861V58.3714H64.8475V63.6422L65.3216 61.8099L66.3883 58.3714H67.8224V66.7H66.649V60.8343L66.1157 62.8807Z"
        fill="#FFC574" />
    <path
        d="M46.2942 74.5467C46.2942 74.1898 46.2349 73.9439 46.1164 73.809C46.0058 73.6662 45.8399 73.5949 45.6186 73.5949C45.1683 73.5949 44.9431 73.8685 44.9431 74.4158V75.3082H43.7105V74.4991C43.7105 73.8249 43.8764 73.3093 44.2083 72.9524C44.5401 72.5875 45.0221 72.4051 45.6542 72.4051C46.2863 72.4051 46.7683 72.5875 47.1001 72.9524C47.432 73.3093 47.5979 73.8249 47.5979 74.4991C47.5979 74.983 47.5071 75.443 47.3253 75.8793C47.1515 76.3155 46.9342 76.6883 46.6735 76.9977C46.4206 77.307 46.1678 77.5966 45.9149 77.8662C45.6621 78.1359 45.4448 78.4096 45.2631 78.6872C45.0893 78.9569 45.0023 79.2147 45.0023 79.4606C45.0023 79.5399 45.0063 79.5994 45.0142 79.639H47.4794V80.8288H43.7105V79.8056C43.7105 79.3535 43.7974 78.941 43.9712 78.5682C44.153 78.1875 44.3702 77.8583 44.6231 77.5807C44.8759 77.2951 45.1288 77.0175 45.3816 76.7478C45.6344 76.4702 45.8478 76.145 46.0216 75.7722C46.2033 75.3994 46.2942 74.9909 46.2942 74.5467Z"
        fill="#FFC574" />
    <path
        d="M49.9622 74.4158V78.9133C49.9622 79.4606 50.1874 79.7342 50.6377 79.7342C51.0881 79.7342 51.3133 79.4606 51.3133 78.9133V74.4158C51.3133 73.8685 51.0881 73.5949 50.6377 73.5949C50.1874 73.5949 49.9622 73.8685 49.9622 74.4158ZM48.6585 78.83V74.4991C48.6585 73.8328 48.8284 73.3172 49.1681 72.9524C49.5079 72.5875 49.9977 72.4051 50.6377 72.4051C51.2778 72.4051 51.7676 72.5875 52.1074 72.9524C52.4471 73.3172 52.617 73.8328 52.617 74.4991V78.83C52.617 79.4963 52.4471 80.0118 52.1074 80.3767C51.7676 80.7416 51.2778 80.924 50.6377 80.924C49.9977 80.924 49.5079 80.7416 49.1681 80.3767C48.8284 80.0118 48.6585 79.4963 48.6585 78.83Z"
        fill="#FFC574" />
    <path
        d="M56.4035 74.5467C56.4035 74.1898 56.3443 73.9439 56.2257 73.809C56.1151 73.6662 55.9492 73.5949 55.728 73.5949C55.2776 73.5949 55.0524 73.8685 55.0524 74.4158V75.3082H53.8198V74.4991C53.8198 73.8249 53.9857 73.3093 54.3176 72.9524C54.6494 72.5875 55.1314 72.4051 55.7635 72.4051C56.3956 72.4051 56.8776 72.5875 57.2094 72.9524C57.5413 73.3093 57.7072 73.8249 57.7072 74.4991C57.7072 74.983 57.6164 75.443 57.4346 75.8793C57.2608 76.3155 57.0435 76.6883 56.7828 76.9977C56.5299 77.307 56.2771 77.5966 56.0243 77.8662C55.7714 78.1359 55.5541 78.4096 55.3724 78.6872C55.1986 78.9569 55.1117 79.2147 55.1117 79.4606C55.1117 79.5399 55.1156 79.5994 55.1235 79.639H57.5887V80.8288H53.8198V79.8056C53.8198 79.3535 53.9067 78.941 54.0805 78.5682C54.2623 78.1875 54.4796 77.8583 54.7324 77.5807C54.9852 77.2951 55.2381 77.0175 55.4909 76.7478C55.7438 76.4702 55.9571 76.145 56.1309 75.7722C56.3127 75.3994 56.4035 74.9909 56.4035 74.5467Z"
        fill="#FFC574" />
    <path
        d="M60.2891 74.4158V78.9133C60.2891 79.4606 60.5143 79.7342 60.9646 79.7342C61.415 79.7342 61.6402 79.4606 61.6402 78.9133V74.4158C61.6402 73.8685 61.415 73.5949 60.9646 73.5949C60.5143 73.5949 60.2891 73.8685 60.2891 74.4158ZM58.9854 78.83V74.4991C58.9854 73.8328 59.1552 73.3172 59.495 72.9524C59.8348 72.5875 60.3246 72.4051 60.9646 72.4051C61.6046 72.4051 62.0945 72.5875 62.4343 72.9524C62.774 73.3172 62.9439 73.8328 62.9439 74.4991V78.83C62.9439 79.4963 62.774 80.0118 62.4343 80.3767C62.0945 80.7416 61.6046 80.924 60.9646 80.924C60.3246 80.924 59.8348 80.7416 59.495 80.3767C59.1552 80.0118 58.9854 79.4963 58.9854 78.83Z"
        fill="#FFC574" />
    <path
        d="M8.18656 62.0483L7.67135 62.1611L7.72988 62.4285C7.88595 63.1415 7.58791 63.5804 6.83575 63.745L5.59012 64.0176C4.83796 64.1823 4.38384 63.9081 4.22777 63.1951L4.16924 62.9277L3.62142 63.0476L3.46725 62.3433L4.01507 62.2233L3.95654 61.956C3.80046 61.2429 4.0985 60.8041 4.85066 60.6394L6.09629 60.3668C6.84846 60.2022 7.30257 60.4763 7.45865 61.1894L7.51718 61.4568L8.03238 61.344L8.18656 62.0483ZM4.58913 61.8175L4.64766 62.0849L6.8911 61.5938L6.83257 61.3264C6.78023 61.0873 6.60189 61.001 6.29755 61.0677L4.96061 61.3603C4.66062 61.426 4.53679 61.5784 4.58913 61.8175ZM7.04527 62.2981L4.80183 62.7892L4.86036 63.0566C4.91271 63.2957 5.08887 63.3825 5.38887 63.3168L6.7258 63.0241C7.03014 62.9575 7.15614 62.8047 7.1038 62.5655L7.04527 62.2981Z"
        fill="#FFC574" />
    <path
        d="M3.52859 59.0084L4.81795 58.8287L4.6788 57.8303L5.34001 57.7381L5.47916 58.7365L6.83465 58.5476L6.65955 57.2913L7.32076 57.1992L7.59723 59.1828L2.96875 59.8279L2.69228 57.8442L3.35349 57.7521L3.52859 59.0084Z"
        fill="#FFC574" />
    <path
        d="M7.6464 53.4433L7.69416 54.1694L7.06797 54.2106L7.17094 55.7761L7.79714 55.7349L7.84402 56.4477L6.56499 56.5319L6.54615 56.2454C6.4059 56.1476 6.19989 56.1009 5.92811 56.1054L2.51306 56.1628L2.37809 54.111L6.3884 53.8472L6.36736 53.5275L7.6464 53.4433ZM3.13409 55.4328L5.86746 55.3868C6.16618 55.385 6.37722 55.4403 6.50058 55.5526L6.43748 54.5933L3.09334 54.8133L3.13409 55.4328Z"
        fill="#FFC574" />
    <path
        d="M2.99668 51.9805L4.29847 51.9892L4.30516 50.9811L4.97275 50.9855L4.96606 51.9936L6.33462 52.0027L6.34303 50.7342L7.01062 50.7387L6.99734 52.7414L2.32422 52.7104L2.3375 50.7077L3.00509 50.7121L2.99668 51.9805Z"
        fill="#FFC574" />
    <path
        d="M2.44376 48.4725C2.49543 47.7444 2.90529 47.4076 3.67333 47.4621L4.27932 47.5051C5.04736 47.5596 5.40554 47.9509 5.35386 48.679L5.32928 49.0253L7.08067 49.1496L7.02868 49.8821L2.36719 49.5513L2.44376 48.4725ZM3.10969 48.5197L3.08511 48.866L4.66336 48.978L4.68793 48.6318C4.69644 48.5119 4.66945 48.4207 4.60695 48.3583C4.54477 48.2914 4.43377 48.2523 4.27395 48.241L3.57472 48.1913C3.4149 48.18 3.29949 48.203 3.22848 48.2605C3.15779 48.3134 3.11819 48.3999 3.10969 48.5197Z"
        fill="#FFC574" />
    <path
        d="M2.83444 44.806L7.56573 44.6922L7.46628 45.4265L6.60907 45.4385L6.48812 46.3316L7.31128 46.571L7.22079 47.2392L2.69019 45.8711L2.83444 44.806ZM3.57773 45.486L5.87218 46.1538L5.96715 45.4526L3.57773 45.486Z"
        fill="#FFC574" />
    <path
        d="M7.58942 44.4609L6.93584 44.3248C6.97214 44.1505 6.97004 44.0296 6.92955 43.9621C6.88561 43.8893 6.7617 43.8294 6.55781 43.7824L3.12486 42.9448L3.54814 40.9121L8.12322 41.8648L7.97078 42.5969L4.04929 41.7802L3.91863 42.4077L6.66695 43.0618C7.08252 43.162 7.36284 43.3113 7.50792 43.5097C7.65299 43.7081 7.68787 43.9882 7.61256 44.3498L7.58942 44.4609Z"
        fill="#FFC574" />
    <path
        d="M8.67383 39.7445L8.37966 40.7853L3.88263 39.5142L4.08237 38.8075L5.77197 39.285L5.8664 38.951C6.06493 38.2486 6.53466 38.0021 7.2756 38.2115L7.86022 38.3768C8.60116 38.5862 8.87236 39.0421 8.67383 39.7445ZM7.93697 39.897L8.0314 39.5629C8.06408 39.4473 8.05617 39.3525 8.00767 39.2787C7.96037 39.2006 7.85963 39.1397 7.70545 39.0962L7.03089 38.9055C6.87671 38.8619 6.75902 38.861 6.67783 38.9028C6.59785 38.9404 6.54152 39.0169 6.50883 39.1326L6.41441 39.4666L7.93697 39.897Z"
        fill="#FFC574" />
    <path
        d="M7.53787 36.6418L9.42006 37.3263L9.16907 38.0164L4.77728 36.4192L5.02828 35.7291L6.91047 36.4136L7.1957 35.6293L5.3135 34.9448L5.56906 34.2421L9.96085 35.8394L9.70529 36.5421L7.8231 35.8575L7.53787 36.6418Z"
        fill="#FFC574" />
    <path
        d="M10.8448 33.6858L10.3877 34.666L6.15234 32.6909L6.46271 32.0254L8.05399 32.7674L8.20071 32.4528C8.5092 31.7913 9.01235 31.6232 9.71017 31.9487L10.2608 32.2054C10.9586 32.5308 11.1533 33.0243 10.8448 33.6858ZM10.093 33.7183L10.2397 33.4037C10.2905 33.2948 10.2979 33.2 10.2618 33.1193C10.2277 33.0346 10.138 32.9584 9.99275 32.8907L9.35745 32.5945C9.21224 32.5267 9.09621 32.507 9.00938 32.5353C8.92442 32.5595 8.85654 32.626 8.80576 32.735L8.65904 33.0496L10.093 33.7183ZM11.7956 31.6468L11.4853 32.3124L7.24992 30.3373L7.56029 29.6717L11.7956 31.6468Z"
        fill="#FFC574" />
    <path
        d="M12.6153 30.1349L11.0665 28.5315L10.2223 27.6972L13.0726 29.3428L13.4031 28.7705L9.35596 26.4339L8.95206 27.1334L10.3225 28.6185L11.0794 29.3638L8.51812 27.885L8.19099 28.4516L12.2381 30.7882L12.6153 30.1349ZM8.04345 26.6243L8.2671 26.2369C8.46753 26.3526 8.59218 26.5017 8.64105 26.6841C8.68607 26.8642 8.64516 27.0642 8.51831 27.2839C8.39369 27.4997 8.24323 27.6313 8.06691 27.6785C7.89283 27.7219 7.70142 27.6885 7.49268 27.5782L7.71967 27.1851C7.82819 27.2375 7.91396 27.2536 7.97698 27.2334C8.03615 27.2111 8.09132 27.1555 8.14251 27.0669C8.19592 26.9744 8.2167 26.8939 8.20486 26.8254C8.19302 26.7569 8.13922 26.6898 8.04345 26.6243Z"
        fill="#FFC574" />
    <path
        d="M14.0653 24.1538L15.663 25.3616L15.2202 25.9474L11.4922 23.1294L11.935 22.5436L13.5327 23.7513L14.0359 23.0856L12.4382 21.8779L12.8891 21.2814L16.6171 24.0994L16.1662 24.6958L14.5685 23.4881L14.0653 24.1538Z"
        fill="#FFC574" />
    <path
        d="M14.8846 19.9124L15.863 20.7711L16.528 20.0134L17.0298 20.4538L16.3648 21.2115L17.3934 22.1143L18.2301 21.1609L18.7319 21.6013L17.4108 23.1066L13.8984 20.0239L15.2196 18.5186L15.7213 18.959L14.8846 19.9124Z"
        fill="#FFC574" />
    <path
        d="M20.4793 19.7855L18.655 18.9784L18.7978 19.4406L19.8154 20.4529L19.2975 20.9735L15.9844 17.6777L16.5023 17.1571L17.9459 18.5931L17.1803 16.4755L17.6982 15.9549L18.4545 18.148L21.0113 19.2507L20.4793 19.7855Z"
        fill="#FFC574" />
    <path
        d="M19.4464 15.8314L21.1202 17.7199C21.3239 17.9497 21.5207 17.9805 21.7105 17.8122C21.9004 17.644 21.8934 17.4449 21.6897 17.2151L20.0159 15.3266C19.8122 15.0967 19.6155 15.066 19.4256 15.2342C19.2357 15.4025 19.2427 15.6016 19.4464 15.8314ZM20.5396 18.172L18.9278 16.3534C18.6798 16.0737 18.5595 15.7937 18.567 15.5135C18.5744 15.2334 18.713 14.9737 18.9828 14.7346C19.2526 14.4955 19.527 14.3891 19.806 14.4154C20.085 14.4416 20.3485 14.5947 20.5965 14.8744L22.2083 16.693C22.4563 16.9728 22.5766 17.2528 22.5691 17.5329C22.5617 17.8131 22.4231 18.0727 22.1533 18.3118C21.8835 18.551 21.6091 18.6574 21.3301 18.6311C21.0511 18.6048 20.7876 18.4518 20.5396 18.172Z"
        fill="#FFC574" />
    <path
        d="M21.4462 12.7399L23.869 15.0704L22.2795 12.1152L23.0968 11.5026L25.8998 15.2418L25.3443 15.6583L23.3341 12.9767L24.9383 15.9626L24.3828 16.3791L21.9626 14.0632L23.9447 16.7074L23.4319 17.0918L20.6289 13.3525L21.4462 12.7399Z"
        fill="#FFC574" />
    <path
        d="M25.3009 10.0279L27.4941 12.5757L26.1893 9.48425L27.0605 8.95108L29.4998 12.9371L28.9076 13.2996L27.1583 10.441L28.4748 13.5644L27.8826 13.9268L25.6907 11.3938L27.4157 14.2126L26.869 14.5471L24.4297 10.561L25.3009 10.0279Z"
        fill="#FFC574" />
    <path
        d="M29.4139 8.43804L30.0028 9.59908L30.9019 9.1431L31.2038 9.73851L30.3048 10.1945L30.9238 11.4151L32.0551 10.8413L32.357 11.4367L30.5708 12.3426L28.457 8.1748L30.2432 7.26889L30.5452 7.86429L29.4139 8.43804Z"
        fill="#FFC574" />
    <path
        d="M32.2756 6.34408C32.9466 6.05694 33.4336 6.26731 33.7365 6.9752L33.9755 7.53374C34.2784 8.24162 34.0943 8.73914 33.4232 9.02628L33.1041 9.16284L33.7948 10.7771L33.1196 11.066L31.2812 6.76953L32.2756 6.34408ZM32.5382 6.95785L32.219 7.09442L32.8415 8.54907L33.1606 8.4125C33.2711 8.36523 33.3398 8.29952 33.3667 8.21538C33.3978 8.12949 33.3818 8.0129 33.3187 7.86559L33.043 7.22112C32.9799 7.07382 32.9066 6.98173 32.8231 6.94487C32.7436 6.90625 32.6487 6.91058 32.5382 6.95785Z"
        fill="#FFC574" />
    <path
        d="M35.6087 5.05828L36.3022 4.81678L37.8391 9.23007L37.1456 9.47157L36.5264 7.69365C36.4322 7.91026 36.2632 8.06101 36.0194 8.1459C35.742 8.2425 35.4962 8.22678 35.2819 8.09874C35.0704 7.96503 34.9105 7.74266 34.8022 7.43162L34.1523 5.56543L34.8459 5.32393L35.476 7.13338C35.5257 7.27629 35.6016 7.3724 35.7036 7.42171C35.8041 7.46681 35.9133 7.46888 36.0309 7.4279C36.1444 7.38838 36.2195 7.31981 36.2562 7.2222C36.2915 7.12039 36.2835 6.99593 36.2322 6.84882L35.6087 5.05828Z"
        fill="#FFC574" />
    <path
        d="M38.982 4.71039L39.3141 5.96915L40.2888 5.712L40.4591 6.35751L39.4844 6.61466L39.8335 7.93797L41.06 7.61441L41.2303 8.25992L39.2937 8.77082L38.1016 4.2522L40.0382 3.7413L40.2085 4.38682L38.982 4.71039Z"
        fill="#FFC574" />
    <path
        d="M43.1227 6.06434L43.8037 5.92898L43.9248 6.53793C43.9985 6.90898 43.9637 7.21313 43.8203 7.45038C43.676 7.68326 43.4292 7.83441 43.08 7.90382C42.7308 7.97324 42.445 7.92795 42.2226 7.76795C41.9993 7.60359 41.8508 7.33589 41.777 6.96484L41.3033 4.58139C41.2295 4.21034 41.2648 3.90838 41.4091 3.67549C41.5525 3.43825 41.7989 3.28492 42.1481 3.2155C42.4973 3.14609 42.7835 3.19356 43.0068 3.35792C43.2292 3.51792 43.3773 3.78344 43.451 4.15449L43.5395 4.59975L42.8585 4.73511L42.7609 4.24401C42.701 3.94281 42.5467 3.81693 42.2979 3.86639C42.0491 3.91585 41.9546 4.09118 42.0145 4.39239L42.5064 6.8675C42.5654 7.16434 42.7193 7.28803 42.9682 7.23858C43.217 7.18912 43.3119 7.01597 43.2529 6.71913L43.1227 6.06434Z"
        fill="#FFC574" />
    <path
        d="M46.5105 7.29613L45.5526 5.54626L45.385 6.00013L45.5777 7.42249L44.85 7.52106L44.2227 2.89014L44.9504 2.79156L45.2237 4.80932L45.903 2.66251L46.6307 2.56394L45.8982 4.76512L47.258 7.19486L46.5105 7.29613Z"
        fill="#FFC574" />
    <path
        d="M48.8974 4.9244L48.4169 7.10128L47.6639 7.14792L47.375 2.48364L48.028 2.44319L48.2108 5.39502L48.4138 4.35236L48.8942 2.38954L49.7005 2.33959L49.9894 7.00387L49.3297 7.04474L49.1263 3.75975L48.8974 4.9244Z"
        fill="#FFC574" />
    <path
        d="M51.9717 6.96171L52.6244 4.83011L52.9454 3.68742L52.8862 6.97817L53.547 6.99007L53.6311 2.3176L52.8235 2.30306L52.188 4.22131L51.9025 5.24445L51.9557 2.28744L51.3016 2.27567L51.2175 6.94813L51.9717 6.96171ZM52.8289 1.26153L53.2761 1.26958C53.2719 1.50098 53.2019 1.68223 53.066 1.81332C52.9301 1.93997 52.7354 2.00101 52.4818 1.99644C52.2326 1.99196 52.0446 1.92403 51.9179 1.79266C51.7956 1.66136 51.7321 1.47771 51.7275 1.2417L52.1814 1.24988C52.1881 1.37018 52.2156 1.45303 52.2637 1.49841C52.3119 1.53934 52.3872 1.56073 52.4896 1.56257C52.5964 1.56449 52.6769 1.54368 52.7311 1.50015C52.7853 1.45661 52.8179 1.37707 52.8289 1.26153Z"
        fill="#FFC574" />
    <path
        d="M58.2116 3.36317L57.6296 7.32628L56.903 7.21958L57.582 2.59595L59.874 2.93254L59.195 7.55617L58.4553 7.44753L59.0373 3.48442L58.2116 3.36317Z"
        fill="#FFC574" />
    <path
        d="M62.4858 3.44489C63.1987 3.60162 63.4725 4.05599 63.3071 4.808L63.1767 5.40135C63.0113 6.15336 62.5722 6.45099 61.8593 6.29425L61.5203 6.21971L61.1432 7.93455L60.426 7.77685L61.4295 3.21265L62.4858 3.44489ZM62.3424 4.09691L62.0034 4.02237L61.6636 5.56768L62.0027 5.64222C62.12 5.66803 62.2141 5.65454 62.285 5.60176C62.3602 5.54994 62.415 5.44579 62.4494 5.2893L62.5999 4.60467C62.6343 4.44818 62.6283 4.33064 62.5817 4.25206C62.5396 4.17443 62.4598 4.12272 62.3424 4.09691Z"
        fill="#FFC574" />
    <path
        d="M64.871 5.13822L64.1667 7.5615C64.081 7.8564 64.16 8.03924 64.4036 8.11004C64.6472 8.18083 64.8119 8.06878 64.8976 7.77389L65.6018 5.3506C65.6875 5.05571 65.6086 4.87286 65.365 4.80206C65.1213 4.73127 64.9567 4.84332 64.871 5.13822ZM63.4746 7.31169L64.1528 4.97815C64.2571 4.61915 64.4297 4.36805 64.6706 4.22486C64.9115 4.08167 65.2051 4.06038 65.5513 4.16098C65.8974 4.26159 66.1339 4.43689 66.2605 4.6869C66.3871 4.9369 66.3983 5.24141 66.294 5.60042L65.6158 7.93395C65.5115 8.29295 65.3389 8.54405 65.0979 8.68724C64.857 8.83043 64.5635 8.85172 64.2173 8.75112C63.8711 8.65051 63.6347 8.47521 63.5081 8.2252C63.3814 7.9752 63.3703 7.67069 63.4746 7.31169Z"
        fill="#FFC574" />
    <path
        d="M67.9925 5.69652L67.552 6.92157L68.5007 7.26265L68.2748 7.89088L67.3262 7.5498L66.8631 8.83766L68.0567 9.26684L67.8308 9.89507L65.9462 9.21742L67.5273 4.81982L69.412 5.49747L69.1861 6.1257L67.9925 5.69652Z"
        fill="#FFC574" />
    <path
        d="M70.1448 10.8512L70.2266 8.85801L69.849 9.16043L69.2805 10.4784L68.6062 10.1876L70.457 5.89648L71.1313 6.18734L70.3249 8.05702L72.0141 6.56809L72.6884 6.85894L70.9255 8.36698L70.8375 11.15L70.1448 10.8512Z"
        fill="#FFC574" />
    <path
        d="M72.8679 7.6774L73.1719 7.08301L75.1928 8.1165L74.8888 8.71089L74.2053 8.36132L72.3815 11.9277L71.7276 11.5933L73.5515 8.02696L72.8679 7.6774Z"
        fill="#FFC574" />
    <path
        d="M77.3029 12.4541L76.1902 14.1194L75.5796 13.7114L78.1758 9.82568L78.7864 10.2337L77.6737 11.899L78.3676 12.3626L79.4803 10.6973L80.102 11.1126L77.5058 14.9984L76.8841 14.583L77.9967 12.9177L77.3029 12.4541Z"
        fill="#FFC574" />
    <path
        d="M82.7112 13.0532L80.4289 17.1992L79.8444 16.7438L80.2654 15.997L79.5544 15.4431L78.9333 16.034L78.4014 15.6196L81.8633 12.3926L82.7112 13.0532ZM81.7495 13.3534L80.0179 15.0002L80.5762 15.4352L81.7495 13.3534Z"
        fill="#FFC574" />
    <path
        d="M82.4625 19.8282L81.9209 19.3422L82.34 18.8751L81.1723 17.8274L80.7532 18.2944L80.2215 17.8174L81.0776 16.8633L81.2913 17.0551C81.4599 17.027 81.6399 16.9164 81.8312 16.7233L84.2338 14.2956L85.7642 15.6689L83.0801 18.6602L83.3186 18.8742L82.4625 19.8282ZM84.2997 15.2518L82.3767 17.1949C82.1643 17.4049 81.9748 17.5129 81.808 17.5188L82.5235 18.1608L84.7618 15.6664L84.2997 15.2518Z"
        fill="#FFC574" />
    <path
        d="M86.8288 17.6464L85.8905 18.5488L86.5893 19.2754L86.1081 19.7381L85.4093 19.0115L84.4229 19.9602L85.3022 20.8745L84.821 21.3372L83.4327 19.8937L86.801 16.6543L88.1893 18.0978L87.7081 18.5606L86.8288 17.6464Z"
        fill="#FFC574" />
    <path
        d="M90.3214 20.5562L88.8619 21.756L90.8725 21.2266L91.3388 21.7939L89.3019 22.3017L87.7288 24.7615L87.2498 24.1788L88.4245 22.3488L88.0368 22.4343L86.7114 23.5238L86.2493 22.9617L87.5747 21.8722L87.7387 21.504L85.7109 22.3067L85.2318 21.724L87.9383 20.6744L88.8418 18.7563L89.3081 19.3236L88.3998 21.1938L89.8593 19.9941L90.3214 20.5562Z"
        fill="#FFC574" />
    <path
        d="M90.0916 24.6492L88.4409 25.7834L88.025 25.1781L91.8768 22.5317L92.2926 23.137L90.6419 24.2712L91.1144 24.959L92.7652 23.8248L93.1886 24.4411L89.3369 27.0874L88.9134 26.4712L90.5642 25.337L90.0916 24.6492Z"
        fill="#FFC574" />
    <path
        d="M90.6059 29.1076L90.0768 28.1644L94.1525 25.8779L94.5118 26.5184L92.9805 27.3774L93.1503 27.6802C93.5075 28.3168 93.3503 28.8234 92.6787 29.2002L92.1489 29.4974C91.4774 29.8741 90.9631 29.7442 90.6059 29.1076ZM91.0183 28.4782L91.1882 28.781C91.247 28.8858 91.3196 28.9471 91.4062 28.9649C91.4949 28.9866 91.6091 28.9582 91.7488 28.8798L92.3602 28.5368C92.4999 28.4584 92.5837 28.3757 92.6114 28.2887C92.6413 28.2056 92.6269 28.1117 92.5681 28.0069L92.3982 27.7041L91.0183 28.4782ZM91.7067 31.0698L91.3474 30.4293L95.4231 28.1428L95.7824 28.7833L91.7067 31.0698Z"
        fill="#FFC574" />
    <path
        d="M96.0871 30.9388L94.9044 31.4829L95.3257 32.3987L94.7192 32.6777L94.2979 31.7619L93.0546 32.3338L93.5847 33.4862L92.9781 33.7652L92.1412 31.9457L96.3867 29.9927L97.2237 31.8122L96.6172 32.0912L96.0871 30.9388Z"
        fill="#FFC574" />
    <path
        d="M96.2405 36.6196L94.3344 37.2343L94.109 36.5354L98.5566 35.1011L98.782 35.8L96.8759 36.4147L97.132 37.2089L99.0382 36.5942L99.2677 37.3058L94.82 38.7402L94.5905 38.0286L96.4967 37.4138L96.2405 36.6196Z"
        fill="#FFC574" />
    <path
        d="M98.8742 39.8926L96.4222 40.4891C96.1238 40.5617 96.0046 40.7213 96.0645 40.9678C96.1245 41.2143 96.3037 41.3012 96.6021 41.2286L99.0541 40.6321C99.3525 40.5595 99.4717 40.4 99.4117 40.1535C99.3518 39.907 99.1726 39.82 98.8742 39.8926ZM96.294 39.7645L98.6552 39.1901C99.0185 39.1017 99.3222 39.1263 99.5663 39.2639C99.8105 39.4014 99.9752 39.6454 100.06 39.9957C100.146 40.3459 100.111 40.6383 99.9577 40.8726C99.804 41.107 99.5455 41.2683 99.1823 41.3567L96.8211 41.9311C96.4578 42.0195 96.1541 41.9949 95.9099 41.8573C95.6658 41.7198 95.5011 41.4759 95.4158 41.1256C95.3306 40.7753 95.3649 40.483 95.5186 40.2486C95.6722 40.0143 95.9307 39.8529 96.294 39.7645Z"
        fill="#FFC574" />
    <path
        d="M100.66 43.0738C100.726 43.4462 100.687 43.7335 100.543 43.9357C100.402 44.1372 100.153 44.27 99.7933 44.3342L99.629 44.3636C99.1558 44.4482 98.8191 44.3479 98.6189 44.0627C98.543 44.447 98.2465 44.6854 97.7295 44.7779L97.3549 44.8449C97.0001 44.9083 96.7116 44.8627 96.4895 44.708C96.2726 44.5569 96.132 44.3017 96.0678 43.9424L95.8645 42.8055L100.465 41.9829L100.66 43.0738ZM98.1214 43.4803L98.0639 43.1582L96.6509 43.4109L96.725 43.8249C96.7477 43.952 96.7974 44.0403 96.8741 44.0899C96.9551 44.1387 97.0789 44.1482 97.2454 44.1184L97.6463 44.0467C97.8566 44.0091 97.9945 43.9461 98.06 43.8575C98.1307 43.7725 98.1512 43.6467 98.1214 43.4803ZM99.9991 43.1716L99.9368 42.8233L98.721 43.0407L98.7716 43.3233C98.7974 43.4679 98.8539 43.5686 98.9409 43.6254C99.0287 43.6865 99.1602 43.7014 99.3354 43.6701L99.5917 43.6243C99.9072 43.5679 100.043 43.417 99.9991 43.1716Z"
        fill="#FFC574" />
    <path
        d="M100.021 45.9792L97.5133 46.2603C97.2081 46.2945 97.0696 46.4377 97.0979 46.6898C97.1261 46.9419 97.2929 47.0509 97.598 47.0166L100.106 46.7356C100.411 46.7014 100.55 46.5582 100.521 46.3061C100.493 46.054 100.326 45.945 100.021 45.9792ZM97.4779 45.5253L99.8929 45.2547C100.264 45.213 100.563 45.2759 100.787 45.4433C101.012 45.6107 101.145 45.8735 101.185 46.2317C101.225 46.59 101.154 46.8756 100.972 47.0886C100.79 47.3016 100.513 47.4289 100.141 47.4706L97.7263 47.7412C97.3547 47.7829 97.0566 47.72 96.8318 47.5526C96.607 47.3852 96.4746 47.1224 96.4344 46.7641C96.3943 46.4059 96.4653 46.1203 96.6474 45.9073C96.8296 45.6943 97.1064 45.567 97.4779 45.5253Z"
        fill="#FFC574" />
    <path
        d="M98.4758 49.745L98.5108 50.4384L97.8907 50.4697C97.5129 50.4888 97.217 50.4101 97.0032 50.2337C96.7937 50.0571 96.68 49.791 96.6621 49.4354C96.6441 49.0798 96.7305 48.8036 96.9211 48.6069C97.1161 48.4099 97.4026 48.3018 97.7804 48.2828L100.207 48.1603C100.585 48.1412 100.879 48.22 101.088 48.3966C101.302 48.573 101.418 48.8389 101.436 49.1946C101.454 49.5502 101.365 49.8265 101.17 50.0235C100.98 50.2203 100.696 50.3282 100.318 50.3472L99.8643 50.3701L99.8293 49.6767L100.329 49.6515C100.636 49.636 100.783 49.5016 100.77 49.2482C100.758 48.9948 100.598 48.8759 100.291 48.8914L97.7707 49.0185C97.4685 49.0338 97.3237 49.1681 97.3365 49.4215C97.3493 49.6748 97.5068 49.7939 97.8091 49.7786L98.4758 49.745Z"
        fill="#FFC574" />
    <path
        d="M100.8 51.1192L101.467 51.1287L101.435 53.3983L100.767 53.3888L100.778 52.6211L96.7729 52.5642L96.7834 51.8299L100.789 51.8868L100.8 51.1192Z"
        fill="#FFC574" />
    <path
        d="M101.32 55.576C101.262 56.3037 100.85 56.6374 100.082 56.5771L99.4768 56.5295C98.7092 56.4692 98.354 56.0752 98.4111 55.3476L98.4383 55.0015L96.6879 54.864L96.7454 54.1319L101.404 54.4978L101.32 55.576ZM100.654 55.5237L100.681 55.1776L99.1039 55.0537L99.0767 55.3998C99.0673 55.5196 99.0936 55.611 99.1556 55.6739C99.2173 55.7412 99.328 55.7812 99.4877 55.7937L100.187 55.8486C100.346 55.8612 100.462 55.839 100.533 55.7821C100.604 55.7296 100.645 55.6435 100.654 55.5237Z"
        fill="#FFC574" />
    <path
        d="M99.9744 58.1273L97.4763 57.7699C97.1723 57.7264 97.0024 57.8303 96.9664 58.0814C96.9305 58.3325 97.0646 58.4798 97.3686 58.5233L99.8667 58.8807C100.171 58.9241 100.341 58.8203 100.377 58.5692C100.412 58.3181 100.278 58.1707 99.9744 58.1273ZM97.6266 57.0496L100.032 57.3937C100.402 57.4466 100.675 57.5823 100.851 57.8007C101.026 58.0192 101.088 58.3068 101.037 58.6637C100.986 59.0206 100.846 59.2793 100.616 59.4397C100.386 59.6002 100.087 59.6539 99.7164 59.601L97.3108 59.2569C96.9407 59.204 96.6679 59.0683 96.4923 58.8498C96.3168 58.6314 96.2545 58.3437 96.3056 57.9869C96.3566 57.63 96.497 57.3713 96.7268 57.2109C96.9566 57.0504 97.2565 56.9966 97.6266 57.0496Z"
        fill="#FFC574" />
    <path
        d="M95.9698 60.4164L97.9349 61.4692L98.9938 62.0053L95.7767 61.3104L95.6372 61.9565L100.205 62.943L100.376 62.1535L98.6166 61.1588L97.668 60.6808L100.559 61.3051L100.697 60.6656L96.1291 59.679L95.9698 60.4164ZM101.396 62.3603L101.302 62.7975C101.076 62.7486 100.912 62.6448 100.809 62.4861C100.711 62.3284 100.689 62.1255 100.743 61.8776C100.795 61.6339 100.898 61.4627 101.052 61.3638C101.204 61.2692 101.397 61.2425 101.629 61.2836L101.533 61.7273C101.414 61.7106 101.327 61.7215 101.273 61.76C101.224 61.7994 101.188 61.8691 101.167 61.9692C101.144 62.0736 101.149 62.1566 101.181 62.2182C101.213 62.2798 101.285 62.3271 101.396 62.3603Z"
        fill="#FFC574" />
    <path
        d="M94.8367 64.9157L96.8253 64.7568L96.4795 64.4183L95.1027 64.0127L95.3102 63.3083L99.793 64.6289L99.5854 65.3333L97.6322 64.7579L99.3138 66.2555L99.1062 66.9599L97.3969 65.3915L94.6235 65.6393L94.8367 64.9157Z"
        fill="#FFC574" />
    <path
        d="M96.085 67.944L94.2906 66.6212L94.5536 65.9141L98.9336 67.5435L98.7055 68.1567L95.9336 67.1255L96.8041 67.7343L98.4029 68.9701L98.1213 69.7272L93.7413 68.0979L93.9717 67.4784L97.0565 68.6259L96.085 67.944Z"
        fill="#FFC574" />
    <path
        d="M96.0082 74.4211C95.6735 75.0697 95.1641 75.2175 94.4798 74.8645L93.9399 74.5859C93.2557 74.2328 93.0809 73.7319 93.4156 73.0833L93.5748 72.7748L92.0145 71.9697L92.3512 71.3171L96.5042 73.46L96.0082 74.4211ZM95.4149 74.1149L95.5741 73.8064L94.1681 73.0809L94.0089 73.3894C93.9538 73.4962 93.9426 73.5906 93.9754 73.6727C94.0062 73.7586 94.0927 73.8384 94.2351 73.9118L94.8581 74.2333C95.0005 74.3067 95.1156 74.3311 95.2035 74.3063C95.2894 74.2855 95.3598 74.2217 95.4149 74.1149Z"
        fill="#FFC574" />
    <path
        d="M93.8345 76.1773L91.6676 74.8839C91.4039 74.7265 91.2071 74.7567 91.0771 74.9746C90.947 75.1924 91.0139 75.38 91.2776 75.5374L93.4444 76.8308C93.7081 76.9882 93.905 76.958 94.035 76.7402C94.165 76.5223 94.0982 76.3347 93.8345 76.1773ZM92.0841 74.2773L94.1708 75.5228C94.4918 75.7144 94.6912 75.9448 94.7689 76.2141C94.8466 76.4834 94.793 76.7728 94.6083 77.0823C94.4235 77.3919 94.1942 77.5764 93.9203 77.6358C93.6464 77.6952 93.3489 77.6291 93.0279 77.4374L90.9413 76.1919C90.6203 76.0003 90.4209 75.7699 90.3432 75.5006C90.2655 75.2314 90.319 74.942 90.5038 74.6324C90.6886 74.3228 90.9179 74.1384 91.1918 74.079C91.4657 74.0196 91.7631 74.0857 92.0841 74.2773Z"
        fill="#FFC574" />
    <path
        d="M90.304 78.2751L89.912 78.8481L89.3995 78.4976C89.0873 78.284 88.8994 78.0423 88.836 77.7724C88.7762 77.505 88.8468 77.2244 89.0479 76.9305C89.2489 76.6367 89.4848 76.4691 89.7557 76.4279C90.0302 76.3892 90.3236 76.4766 90.6358 76.6902L92.6415 78.0622C92.9538 78.2758 93.1398 78.5163 93.1996 78.7836C93.263 79.0535 93.1942 79.3354 92.9932 79.6293C92.7922 79.9231 92.5544 80.0894 92.2799 80.1281C92.009 80.1693 91.7175 80.0832 91.4052 79.8696L91.0305 79.6133L91.4225 79.0402L91.8358 79.3229C92.0893 79.4963 92.2876 79.4783 92.4309 79.2689C92.5741 79.0595 92.519 78.8681 92.2655 78.6947L90.1826 77.27C89.9328 77.0991 89.7363 77.1184 89.5931 77.3278C89.4499 77.5371 89.5031 77.7273 89.7529 77.8981L90.304 78.2751Z"
        fill="#FFC574" />
    <path
        d="M88.4402 80.812L88.0115 81.3581L87.5231 80.9748C87.2255 80.7412 87.0539 80.4877 87.0083 80.2142C86.9662 79.9435 87.055 79.6681 87.2749 79.3881C87.4947 79.108 87.7411 78.9563 88.0141 78.9329C88.2906 78.9122 88.5776 79.0187 88.8752 79.2523L90.7867 80.7528C91.0843 80.9864 91.2541 81.2385 91.2962 81.5092C91.3419 81.7827 91.2548 82.0594 91.0349 82.3395C90.8151 82.6196 90.5669 82.7699 90.2904 82.7906C90.0175 82.8139 89.7322 82.7088 89.4346 82.4752L89.0775 82.1949L89.5062 81.6488L89.9001 81.9579C90.1417 82.1476 90.3408 82.1426 90.4974 81.943C90.654 81.7435 90.6116 81.5489 90.37 81.3593L88.385 79.8011C88.1469 79.6142 87.9496 79.6206 87.7929 79.8201C87.6363 80.0197 87.677 80.2129 87.9151 80.3998L88.4402 80.812Z"
        fill="#FFC574" />
    <path
        d="M86.9709 83.1774L85.793 81.2847L86.2989 80.7251L89.7656 83.8589L89.3269 84.3442L87.1329 82.361L87.7165 83.2485L88.7449 84.9881L88.2032 85.5873L84.7365 82.4535L85.1797 81.9632L87.6212 84.1703L86.9709 83.1774Z"
        fill="#FFC574" />
    <path
        d="M84.2852 85.9567L83.2643 83.975L83.8138 83.4581L87.0156 86.8621L86.5391 87.3103L84.5127 85.1561L85.0226 86.0879L85.9069 87.905L85.3185 88.4584L82.1166 85.0545L82.5981 84.6016L84.8531 86.999L84.2852 85.9567Z"
        fill="#FFC574" />
</svg>