<svg width="46" height="46" viewBox="0 0 46 46" fill="none" xmlns="http://www.w3.org/2000/svg">
<rect width="46" height="46" rx="23" fill="white"/>
<path d="M20.5 18.5833H25.5" stroke="#2375E0" stroke-width="1.5" stroke-linecap="round" stroke-linejoin="round"/>
<path d="M28 21.5H18" stroke="#2375E0" stroke-width="1.5" stroke-linecap="round" stroke-linejoin="round"/>
<path d="M18 26.0833H20.5" stroke="#2375E0" stroke-width="1.5" stroke-linecap="round" stroke-linejoin="round"/>
<path d="M27.2678 24.7322C28.2441 25.7085 28.2441 27.2915 27.2678 28.2678C26.2915 29.2441 24.7085 29.2441 23.7322 28.2678C22.7559 27.2915 22.7559 25.7085 23.7322 24.7322C24.7085 23.7559 26.2915 23.7559 27.2678 24.7322" stroke="#2375E0" stroke-width="1.5" stroke-linecap="round" stroke-linejoin="round"/>
<path d="M27.1654 28.3511V32.3336L25.4987 31.5002L23.832 32.3336V28.3511" stroke="#2375E0" stroke-width="1.5" stroke-linecap="round" stroke-linejoin="round"/>
<path d="M27.168 29.8332H29.668C30.5888 29.8332 31.3346 29.0873 31.3346 28.1665V17.3332C31.3346 16.4123 30.5888 15.6665 29.668 15.6665H16.3346C15.4138 15.6665 14.668 16.4123 14.668 17.3332V28.1665C14.668 29.0873 15.4138 29.8332 16.3346 29.8332H23.8346" stroke="#2375E0" stroke-width="1.5" stroke-linecap="round" stroke-linejoin="round"/>
</svg>
