<svg width="160" height="160" viewBox="0 0 160 160" fill="none" xmlns="http://www.w3.org/2000/svg">
<rect width="160" height="160" fill="white"/>
<path d="M77.9375 98.0004V85.1075V84.5703H88.7784V89.4051L94.1989 84.5703H104.344L96.608 91.0167L104.438 98.0004H94.8011L88.7784 92.6283V98.0004H77.9375Z" fill="#2274E0"/>
<path d="M52 76.4643V62H59.2609L65.3116 68.0268L71.3624 62H78.0182V76.4643H67.7319V74.6562H67.3028L65.3116 76.4643H64.7066L62.6373 74.6562H62.2863V76.4643H52Z" fill="#2274E0"/>
<path d="M80.023 67.4V62H105V67.4L99.5172 72.8L104.391 77.6V83H61.7471V93.2H76.3678V98H52V78.2H94.6437L89.1609 72.8L94.6437 67.4H80.023Z" fill="#2274E0"/>
</svg>
