<svg id="Layer_1" data-name="Layer 1" xmlns="http://www.w3.org/2000/svg" viewBox="0 0 767 427"><defs><style>.cls-1{fill:none;}</style></defs><path class="cls-1" d="M762.38,1H572.24a3.47,3.47,0,0,0-2.47,1l-174,173.24a4.51,4.51,0,0,1-6.35,0L215.41,2.05a3.45,3.45,0,0,0-2.47-1H5a3.5,3.5,0,0,0-3.5,3.5V421.84a3.5,3.5,0,0,0,3.5,3.5H299.59a3.5,3.5,0,0,0,3.5-3.5V376.68a4.51,4.51,0,0,1,4.5-4.5h4.83a4.48,4.48,0,0,1,3,1.11L374,424.48a3.47,3.47,0,0,0,2.3.86h14.76a3.48,3.48,0,0,0,2.35-.91l56.29-51.09a4.49,4.49,0,0,1,3-1.16h7.08a4.51,4.51,0,0,1,4.5,4.5v45.16a3.5,3.5,0,0,0,3.5,3.5H762.38a3.5,3.5,0,0,0,3.5-3.5V4.53A3.5,3.5,0,0,0,762.38,1Z"/><path d="M762.38,0H572.24a4.46,4.46,0,0,0-3.18,1.31l-174,173.24a3.52,3.52,0,0,1-4.94,0L216.12,1.34A4.46,4.46,0,0,0,212.94,0H5A4.51,4.51,0,0,0,.5,4.53V421.84a4.51,4.51,0,0,0,4.5,4.5H299.59a4.51,4.51,0,0,0,4.5-4.5V376.68a3.5,3.5,0,0,1,3.5-3.5h4.83a3.47,3.47,0,0,1,2.3.86l58.61,51.19a4.48,4.48,0,0,0,3,1.11h14.76a4.45,4.45,0,0,0,3-1.17l56.29-51.09a3.5,3.5,0,0,1,2.35-.9h7.08a3.5,3.5,0,0,1,3.5,3.5v45.16a4.51,4.51,0,0,0,4.5,4.5H762.38a4.51,4.51,0,0,0,4.5-4.5V4.53A4.51,4.51,0,0,0,762.38,0Z"/></svg>