<svg width="24" height="24" viewBox="0 0 24 24" fill="none" xmlns="http://www.w3.org/2000/svg">
<path d="M9.5 6.58341H14.5" stroke="white" stroke-width="1.5" stroke-linecap="round" stroke-linejoin="round"/>
<path d="M17 9.49992H7" stroke="white" stroke-width="1.5" stroke-linecap="round" stroke-linejoin="round"/>
<path d="M7 14.0834H9.5" stroke="white" stroke-width="1.5" stroke-linecap="round" stroke-linejoin="round"/>
<path d="M16.2678 12.7322C17.2441 13.7085 17.2441 15.2915 16.2678 16.2678C15.2915 17.2441 13.7085 17.2441 12.7322 16.2678C11.7559 15.2915 11.7559 13.7085 12.7322 12.7322C13.7085 11.7559 15.2915 11.7559 16.2678 12.7322" stroke="white" stroke-width="1.5" stroke-linecap="round" stroke-linejoin="round"/>
<path d="M16.1654 16.3511V20.3336L14.4987 19.5002L12.832 20.3336V16.3511" stroke="white" stroke-width="1.5" stroke-linecap="round" stroke-linejoin="round"/>
<path d="M16.168 17.8332H18.668C19.5888 17.8332 20.3346 17.0873 20.3346 16.1665V5.33317C20.3346 4.41234 19.5888 3.6665 18.668 3.6665H5.33464C4.4138 3.6665 3.66797 4.41234 3.66797 5.33317V16.1665C3.66797 17.0873 4.4138 17.8332 5.33464 17.8332H12.8346" stroke="white" stroke-width="1.5" stroke-linecap="round" stroke-linejoin="round"/>
</svg>
