<svg id="Layer_1" data-name="Layer 1" xmlns="http://www.w3.org/2000/svg" viewBox="0 0 128 78"><defs><style>.cls-1{fill:#bfc3c7;}</style></defs><polygon class="cls-1" points="67 32 66 32 66 33 67 33 67 45 66 45 66 46 67 46 68 46 69 46 69 45 68 45 68 33 69 33 69 32 68 32 67 32"/><rect y="32" width="30" height="14"/><rect x="32" y="32" width="30" height="14"/><polygon class="cls-1" points="93.8 35.94 93.8 36.83 95.58 35.65 95.62 35.65 95.62 42 96.5 42 96.5 34.73 95.62 34.73 93.8 35.94"/><polygon class="cls-1" points="126.91 36.55 126.35 36.55 126.11 36.55 124.21 40.86 122.33 36.55 122.06 36.55 121.55 36.55 121.22 36.55 121.22 42 122.06 42 122.06 37.75 123.87 42 124.55 42 126.35 37.83 126.35 42 127.19 42 127.19 36.55 126.91 36.55"/><polygon class="cls-1" points="118.85 36.55 118.61 36.55 116.71 40.86 114.83 36.55 114.56 36.55 114.05 36.55 113.72 36.55 113.72 42 114.56 42 114.56 37.75 116.37 42 117.05 42 118.85 37.83 118.85 42 119.69 42 119.69 36.55 119.41 36.55 118.85 36.55"/><path class="cls-1" d="M99.8,41.16l1.63-1.75a12.63,12.63,0,0,0,1-1.13,3.58,3.58,0,0,0,.5-.85,2.39,2.39,0,0,0,.14-.79,1.85,1.85,0,0,0-.28-1,1.94,1.94,0,0,0-.77-.73,2.34,2.34,0,0,0-1.14-.27,2.4,2.4,0,0,0-1.14.27,2,2,0,0,0-.8.75,2.09,2.09,0,0,0-.3,1.12h.84a1.4,1.4,0,0,1,.17-.72,1.15,1.15,0,0,1,.47-.48,1.47,1.47,0,0,1,.74-.18,1.65,1.65,0,0,1,.71.16,1.19,1.19,0,0,1,.68,1.09,1.53,1.53,0,0,1-.14.64,2.6,2.6,0,0,1-.4.65,10.19,10.19,0,0,1-.7.8l-2.4,2.63V42h4.59v-.78H99.8Z"/><path class="cls-1" d="M108.38,35.07a2.32,2.32,0,0,0-2.72,0,2.75,2.75,0,0,0-.87,1.28,6,6,0,0,0-.3,2,6.08,6.08,0,0,0,.3,2,2.78,2.78,0,0,0,.86,1.27,2.35,2.35,0,0,0,2.74,0,2.78,2.78,0,0,0,.86-1.27,6.08,6.08,0,0,0,.3-2,6,6,0,0,0-.3-2A2.75,2.75,0,0,0,108.38,35.07Zm-.12,5.48a1.38,1.38,0,0,1-1.24.77,1.31,1.31,0,0,1-.91-.35,2.15,2.15,0,0,1-.57-1,5.75,5.75,0,0,1-.2-1.61,4.42,4.42,0,0,1,.45-2.19,1.35,1.35,0,0,1,1.23-.78,1.29,1.29,0,0,1,.9.35,2.17,2.17,0,0,1,.57,1,5.31,5.31,0,0,1,.21,1.6A4.48,4.48,0,0,1,108.26,40.55Z"/></svg>