<svg id="Layer_1" data-name="Layer 1" xmlns="http://www.w3.org/2000/svg" viewBox="0 0 134 78"><defs><style>.cls-1{fill:#c8ccd2;}</style></defs><rect x="32" y="64" width="30" height="14"/><rect y="64" width="30" height="14"/><rect width="14" height="30"/><rect x="16" width="14" height="30"/><rect x="32" width="14" height="30"/><rect x="48" width="14" height="30"/><rect y="32" width="14" height="30"/><rect x="16" y="32" width="14" height="30"/><rect x="32" y="32" width="14" height="30"/><rect x="48" y="32" width="14" height="30"/><polygon class="cls-1" points="70 1 70 0 69 0 68 0 67 0 67 1 68 1 68 77 67 77 67 78 68 78 69 78 70 78 70 77 69 77 69 1 70 1"/><path class="cls-1" d="M94.44,43.1a2.75,2.75,0,0,1-.89-.17,2.16,2.16,0,0,1-.82-.55,2.75,2.75,0,0,1-.59-1.06,5.25,5.25,0,0,1-.23-1.67,7.24,7.24,0,0,1,.18-1.71,3.83,3.83,0,0,1,.53-1.26,2.38,2.38,0,0,1,3-.81,2.05,2.05,0,0,1,.78.68,2.38,2.38,0,0,1,.39,1H96a1.65,1.65,0,0,0-.47-.82,1.33,1.33,0,0,0-.93-.32,1.52,1.52,0,0,0-1.33.73,3.77,3.77,0,0,0-.48,2.07h.05a2.17,2.17,0,0,1,.48-.52,2.11,2.11,0,0,1,.61-.33,2,2,0,0,1,.7-.12,2.28,2.28,0,0,1,1.15.31,2.39,2.39,0,0,1,1.14,2.11,2.54,2.54,0,0,1-.3,1.23,2.34,2.34,0,0,1-.85.89A2.41,2.41,0,0,1,94.44,43.1Zm0-.78a1.44,1.44,0,0,0,.8-.23,1.5,1.5,0,0,0,.57-.6,1.68,1.68,0,0,0,.21-.83,1.72,1.72,0,0,0-.2-.82,1.62,1.62,0,0,0-.56-.6,1.51,1.51,0,0,0-1.42-.08,1.82,1.82,0,0,0-.51.36,1.72,1.72,0,0,0-.34.53,1.69,1.69,0,0,0,.64,2A1.5,1.5,0,0,0,94.44,42.32Zm3.66-.81v-.73l3.19-5.05h.53v1.12h-.36l-2.41,3.82v.06h4.3v.78ZM101.52,43V35.73h.84V43Zm5.54.1a2.16,2.16,0,0,1-1.37-.44,2.72,2.72,0,0,1-.87-1.27,6.36,6.36,0,0,1-.29-2,6.27,6.27,0,0,1,.29-2,2.91,2.91,0,0,1,.87-1.28,2.34,2.34,0,0,1,2.73,0,2.81,2.81,0,0,1,.86,1.28,6,6,0,0,1,.3,2,6.36,6.36,0,0,1-.29,2,2.72,2.72,0,0,1-.87,1.27A2.17,2.17,0,0,1,107.06,43.1Zm0-.78a1.37,1.37,0,0,0,1.23-.77,4.48,4.48,0,0,0,.44-2.19,5.67,5.67,0,0,0-.2-1.6,2.18,2.18,0,0,0-.58-1,1.26,1.26,0,0,0-.89-.35,1.38,1.38,0,0,0-1.24.78,4.54,4.54,0,0,0-.44,2.19,5.4,5.4,0,0,0,.2,1.61,2.15,2.15,0,0,0,.57,1A1.29,1.29,0,0,0,107.06,42.32Zm9.68-.46,1.91-4.31h.79L117.08,43h-.68l-2.31-5.45h.78Zm-2.14-4.31V43h-.84V37.55ZM118.89,43V37.55h.83V43Zm5.35-1.14,1.91-4.31h.79L124.58,43h-.68l-2.31-5.45h.78Zm-2.14-4.31V43h-.84V37.55ZM126.39,43V37.55h.83V43Z"/></svg>