<svg id="Layer_1" data-name="Layer 1" xmlns="http://www.w3.org/2000/svg" viewBox="0 0 25 24"><path d="M19.27,6.06,16.44,3.23a2.49,2.49,0,0,0-1.77-.73H7.5A2.5,2.5,0,0,0,5,5V19a2.5,2.5,0,0,0,2.5,2.5h10A2.5,2.5,0,0,0,20,19V7.83A2.49,2.49,0,0,0,19.27,6.06Zm-.71.71a1.51,1.51,0,0,1,.4.73H15.5A.5.5,0,0,1,15,7V3.54a1.51,1.51,0,0,1,.73.4ZM17.5,20.5H7.5A1.5,1.5,0,0,1,6,19V5A1.5,1.5,0,0,1,7.5,3.5H14V7a1.5,1.5,0,0,0,1.5,1.5H19V19A1.5,1.5,0,0,1,17.5,20.5Z"/><path d="M13.15,14.74l-1.06,1V11a.5.5,0,0,0-1,0v4.79L9.91,14.62a.49.49,0,1,0-.7.7l2,2a.36.36,0,0,0,.16.11.41.41,0,0,0,.19,0,.43.43,0,0,0,.19,0,.36.36,0,0,0,.16-.11l1.91-1.91a.49.49,0,0,0-.7-.7Z"/></svg>