<svg id="Layer_1" data-name="Layer 1" xmlns="http://www.w3.org/2000/svg" viewBox="0 0 20 21"><path d="M18,14.67V6.33A3.84,3.84,0,0,0,14.17,2.5H5.83A3.84,3.84,0,0,0,2,6.33v8.34A3.84,3.84,0,0,0,5.83,18.5h8.34a3.81,3.81,0,0,0,3.45-2.2.21.21,0,0,0,.06-.1A3.74,3.74,0,0,0,18,14.67ZM5.83,3.5h8.34A2.83,2.83,0,0,1,17,6.33v8.34a2.71,2.71,0,0,1,0,.41L14.28,12.4a2.51,2.51,0,0,0-3.55,0l-.73.73L6.77,9.9a2.57,2.57,0,0,0-3.55,0L3,10.13V6.33A2.83,2.83,0,0,1,5.83,3.5ZM3,14.67V11.54l.93-.93a1.55,1.55,0,0,1,2.14,0L9.3,13.84,5.65,17.48A2.82,2.82,0,0,1,3,14.67ZM14.17,17.5H7l4.4-4.39a1.5,1.5,0,0,1,2.13,0l3,3A2.81,2.81,0,0,1,14.17,17.5Z"/></svg>