<svg id="Layer_1" data-name="Layer 1" xmlns="http://www.w3.org/2000/svg" viewBox="0 0 32 32"><path d="M26,3.49H6A2.51,2.51,0,0,0,3.49,6V26A2.51,2.51,0,0,0,6,28.5H26A2.5,2.5,0,0,0,28.5,26V6A2.51,2.51,0,0,0,26,3.49ZM27.5,6v7.6h0v1.9h-11V4.5H26A1.5,1.5,0,0,1,27.5,6ZM6,4.49H15.5v11H4.5V13.6h0V6A1.51,1.51,0,0,1,6,4.49ZM4.49,26V18.4h0V16.5h11v11H6A1.5,1.5,0,0,1,4.49,26ZM26,27.5H16.5v-11h11v1.9h0V26A1.5,1.5,0,0,1,26,27.5Z"/><path d="M10.7,22,12,20.69A.51.51,0,0,0,12,20a.5.5,0,0,0-.71,0L10,21.29,8.68,20A.5.5,0,0,0,8,20a.51.51,0,0,0,0,.71L9.29,22,8,23.31A.51.51,0,0,0,8,24a.51.51,0,0,0,.36.15A.49.49,0,0,0,8.68,24L10,22.71,11.31,24a.49.49,0,0,0,.35.15A.51.51,0,0,0,12,24a.51.51,0,0,0,0-.71Z"/><path d="M19.5,10a.5.5,0,0,0,.5.5h4a.5.5,0,0,0,.5-.5.5.5,0,0,0-.5-.5H20A.5.5,0,0,0,19.5,10Z"/><path d="M24,19.7H20a.5.5,0,0,0,0,1h4a.5.5,0,0,0,0-1Z"/><path d="M24,23.3H20a.5.5,0,0,0-.5.5.5.5,0,0,0,.5.5h4a.5.5,0,0,0,.5-.5A.5.5,0,0,0,24,23.3Z"/><path d="M8,10.5H9.5V12a.5.5,0,0,0,.5.5.51.51,0,0,0,.5-.5V10.5H12a.51.51,0,0,0,.5-.5.5.5,0,0,0-.5-.5H10.5V8a.51.51,0,0,0-.5-.5.5.5,0,0,0-.5.5V9.5H8a.5.5,0,0,0-.5.5A.51.51,0,0,0,8,10.5Z"/></svg>