<svg id="Layer_1" data-name="Layer 1" xmlns="http://www.w3.org/2000/svg" viewBox="0 0 128 78"><defs><style>.cls-1{fill:#c8ccd2;}.cls-2{fill:none;stroke:#c8ccd2;}</style></defs><polygon class="cls-1" points="69 8 68 8 67 8 66 8 66 9 67 9 67 70 68 70 68 9 69 9 69 8"/><line class="cls-2" x1="66" y1="69.5" x2="69" y2="69.5"/><path class="cls-1" d="M96.22,43.1a2.47,2.47,0,0,1-1.13-.25,2,2,0,0,1-.8-.68,1.89,1.89,0,0,1-.33-1h.85a1.16,1.16,0,0,0,.45.82,1.52,1.52,0,0,0,1,.32,1.48,1.48,0,0,0,.79-.21,1.4,1.4,0,0,0,.55-.58,1.63,1.63,0,0,0,.21-.83,1.7,1.7,0,0,0-.21-.85,1.56,1.56,0,0,0-1.4-.81,2.14,2.14,0,0,0-.69.1,1.89,1.89,0,0,0-.57.27l-.83-.1.44-3.58h3.78v.78h-3L95,38.65h0a1.84,1.84,0,0,1,.56-.29,2.06,2.06,0,0,1,.7-.12,2.26,2.26,0,0,1,2,1.19,2.54,2.54,0,0,1,.3,1.25,2.57,2.57,0,0,1-.31,1.25,2.29,2.29,0,0,1-.86.86A2.39,2.39,0,0,1,96.22,43.1Zm6.36-7.37V43h-.88V36.65h0l-1.77,1.18v-.9l1.81-1.2Zm4.47,7.37a2.18,2.18,0,0,1-1.37-.44,2.78,2.78,0,0,1-.86-1.27,6.08,6.08,0,0,1-.3-2,6,6,0,0,1,.3-2,2.81,2.81,0,0,1,.86-1.28,2.2,2.2,0,0,1,1.37-.44,2.17,2.17,0,0,1,1.36.44,2.75,2.75,0,0,1,.87,1.28,6,6,0,0,1,.3,2,6.08,6.08,0,0,1-.3,2,2.78,2.78,0,0,1-.86,1.27A2.2,2.2,0,0,1,107.05,43.1Zm0-.78a1.38,1.38,0,0,0,1.24-.77,4.5,4.5,0,0,0,.43-2.19,5.33,5.33,0,0,0-.2-1.6,2.17,2.17,0,0,0-.57-1,1.29,1.29,0,0,0-.9-.35,1.35,1.35,0,0,0-1.23.78,4.42,4.42,0,0,0-.45,2.19,5.75,5.75,0,0,0,.2,1.61,2.15,2.15,0,0,0,.57,1A1.31,1.31,0,0,0,107.05,42.32Zm9.69-.46,1.9-4.31h.79L117.08,43h-.69l-2.31-5.45h.78Zm-2.15-4.31V43h-.84V37.55ZM118.88,43V37.55h.84V43Zm5.36-1.14,1.9-4.31h.79L124.58,43h-.69l-2.31-5.45h.78Zm-2.15-4.31V43h-.84V37.55ZM126.38,43V37.55h.84V43Z"/><rect y="8" width="14" height="30"/><rect x="16" y="8" width="14" height="30"/><rect x="32" y="8" width="14" height="30"/><rect x="48" y="8" width="14" height="30"/><rect y="40" width="14" height="30"/><rect x="16" y="40" width="14" height="30"/><rect x="32" y="40" width="14" height="30"/><rect x="48" y="40" width="14" height="30"/></svg>