<svg id="Layer_1" data-name="Layer 1" xmlns="http://www.w3.org/2000/svg" viewBox="0 0 128 78"><defs><style>.cls-1{fill:#c8ccd2;}</style></defs><polygon class="cls-1" points="69 25 69 24 68 24 67 24 66 24 66 25 67 25 67 53 66 53 66 54 67 54 68 54 69 54 69 53 68 53 68 25 69 25"/><path class="cls-1" d="M91.94,43v-.64l2.4-2.63a10.19,10.19,0,0,0,.7-.8,3,3,0,0,0,.41-.65,1.53,1.53,0,0,0,.13-.64A1.21,1.21,0,0,0,95.4,37a1.17,1.17,0,0,0-.5-.43,1.65,1.65,0,0,0-.71-.16,1.44,1.44,0,0,0-.73.18,1.11,1.11,0,0,0-.48.48,1.5,1.5,0,0,0-.17.72H92a2.09,2.09,0,0,1,.3-1.12,2,2,0,0,1,.8-.75,2.41,2.41,0,0,1,1.15-.27,2.33,2.33,0,0,1,1.13.27,1.94,1.94,0,0,1,.77.73,1.85,1.85,0,0,1,.28,1,2.16,2.16,0,0,1-.14.79,3.58,3.58,0,0,1-.5.85,14.08,14.08,0,0,1-1,1.13l-1.64,1.75v.06h3.38V43Zm8.33.1a2.43,2.43,0,0,1-1.12-.25,2,2,0,0,1-.81-.68,1.89,1.89,0,0,1-.33-1h.86a1.18,1.18,0,0,0,.44.82,1.52,1.52,0,0,0,1,.32,1.54,1.54,0,0,0,.8-.21,1.46,1.46,0,0,0,.55-.58,1.73,1.73,0,0,0,.2-.83,1.7,1.7,0,0,0-.21-.85,1.54,1.54,0,0,0-.57-.59,1.51,1.51,0,0,0-.83-.22,2,2,0,0,0-.68.1,2,2,0,0,0-.58.27l-.82-.1.44-3.58h3.78v.78h-3l-.26,2.14h0a2,2,0,0,1,.56-.29,2.12,2.12,0,0,1,.71-.12,2.28,2.28,0,0,1,1.19.32,2.22,2.22,0,0,1,.82.87,2.54,2.54,0,0,1,.3,1.25,2.47,2.47,0,0,1-.31,1.25,2.34,2.34,0,0,1-.85.86A2.46,2.46,0,0,1,100.27,43.1Zm6.19,0a2.16,2.16,0,0,1-1.37-.44,2.72,2.72,0,0,1-.87-1.27,6.36,6.36,0,0,1-.29-2,6.27,6.27,0,0,1,.29-2,2.83,2.83,0,0,1,.87-1.28,2.2,2.2,0,0,1,1.37-.44,2.17,2.17,0,0,1,1.36.44,2.81,2.81,0,0,1,.86,1.28,6,6,0,0,1,.3,2,6.08,6.08,0,0,1-.3,2,2.64,2.64,0,0,1-.86,1.27A2.15,2.15,0,0,1,106.46,43.1Zm0-.78a1.36,1.36,0,0,0,1.23-.77,4.48,4.48,0,0,0,.44-2.19,5.67,5.67,0,0,0-.2-1.6,2.18,2.18,0,0,0-.58-1,1.25,1.25,0,0,0-.89-.35,1.38,1.38,0,0,0-1.24.78,4.54,4.54,0,0,0-.44,2.19A5.75,5.75,0,0,0,105,41a2.15,2.15,0,0,0,.57,1A1.29,1.29,0,0,0,106.46,42.32Zm9.68-.46,1.91-4.31h.79L116.48,43h-.68l-2.31-5.45h.78ZM114,37.55V43h-.84V37.55ZM118.29,43V37.55h.84V43Zm5.35-1.14,1.91-4.31h.79L124,43h-.68L121,37.55h.78Zm-2.14-4.31V43h-.84V37.55ZM125.79,43V37.55h.84V43Z"/><rect y="24" width="14" height="30"/><rect x="16" y="24" width="14" height="30"/><rect x="32" y="24" width="14" height="30"/><rect x="48" y="24" width="14" height="30"/></svg>