<svg id="Layer_1" data-name="Layer 1" xmlns="http://www.w3.org/2000/svg" viewBox="0 0 20 20"><path d="M15.71,10l.1-.1A4.63,4.63,0,0,0,9.27,3.35L2.14,10.48a.51.51,0,0,0,0,.71.5.5,0,0,0,.36.14.49.49,0,0,0,.35-.14L10,4.06a3.72,3.72,0,0,1,5.13,0,3.6,3.6,0,0,1,1.06,2.56,3.64,3.64,0,0,1-1.06,2.57l-.43.42a4.08,4.08,0,0,0-.93-.11A4.26,4.26,0,0,0,9.5,13.75a4.08,4.08,0,0,0,.11.93L7.84,16.46a1.91,1.91,0,0,1-2.63,0,1.85,1.85,0,0,1,0-2.63L12,7a.5.5,0,0,0,0-.71.51.51,0,0,0-.71,0L4.5,13.12a2.86,2.86,0,0,0,2,4.88,2.82,2.82,0,0,0,2-.83L10,15.71A4.24,4.24,0,1,0,15.71,10Zm-2,7A3.25,3.25,0,1,1,17,13.75,3.26,3.26,0,0,1,13.75,17Z"/><path d="M15,13.25h-.75V12.5a.5.5,0,0,0-.5-.5.5.5,0,0,0-.5.5v.75H12.5a.5.5,0,0,0-.5.5.5.5,0,0,0,.5.5h.75V15a.5.5,0,0,0,.5.5.5.5,0,0,0,.5-.5v-.75H15a.5.5,0,0,0,.5-.5A.5.5,0,0,0,15,13.25Z"/></svg>