<svg id="Layer_1" data-name="Layer 1" xmlns="http://www.w3.org/2000/svg" viewBox="0 0 14 14"><defs><style>.cls-1{fill-rule:evenodd;}</style></defs><path class="cls-1" d="M14,7A7,7,0,1,1,7,0,7,7,0,0,1,14,7ZM7.25,5.17c-.68.28-2,.87-4.08,1.76-.33.13-.51.26-.52.38s.24.3.6.41l.15,0A5.11,5.11,0,0,0,4.49,8a1.37,1.37,0,0,0,.76-.28C7.16,6.46,8.14,5.81,8.2,5.8a.19.19,0,0,1,.15,0,.14.14,0,0,1,0,.13A20.16,20.16,0,0,1,6.77,7.53l-.32.29L6.29,8c-.33.32-.58.56,0,.95l.74.5.82.55.24.17a1.36,1.36,0,0,0,.87.36c.19,0,.38-.19.48-.72.23-1.24.69-3.92.8-5a1.23,1.23,0,0,0,0-.27.26.26,0,0,0-.1-.19.46.46,0,0,0-.27-.09A11.57,11.57,0,0,0,7.25,5.17Z"/></svg>