<svg id="Layer_1" data-name="Layer 1" xmlns="http://www.w3.org/2000/svg" xmlns:xlink="http://www.w3.org/1999/xlink" viewBox="0 0 14 14"><defs><style>.cls-1{fill:none;}.cls-2{clip-path:url(#clip-path);}</style><clipPath id="clip-path"><rect class="cls-1" width="14" height="14"/></clipPath></defs><g class="cls-2"><path d="M.54,13.46l.91-3.34a6.72,6.72,0,1,1,2.43,2.43Zm4.3-9.89a.72.72,0,0,0-.25.07,1,1,0,0,0-.2.15A2.25,2.25,0,0,0,4.22,4a1.77,1.77,0,0,0-.38,1.13,2.24,2.24,0,0,0,.22,1A6.35,6.35,0,0,0,5.39,7.93l.43.42A6.35,6.35,0,0,0,8.41,9.72l.38.06a2.29,2.29,0,0,0,.37,0,1.33,1.33,0,0,0,.56-.15L10,9.47l.09-.06.22-.19A1.1,1.1,0,0,0,10.43,9a2.46,2.46,0,0,0,.13-.49c0-.13,0-.21,0-.25a.27.27,0,0,0-.13-.18l-.39-.18-1-.41a.24.24,0,0,0-.12,0,.29.29,0,0,0-.13,0,.35.35,0,0,0-.12.07h0s-.05,0-.54.63a.15.15,0,0,1-.11.08.2.2,0,0,1-.13,0l-.13,0-.17-.07h0a4.26,4.26,0,0,1-1-.67l-.25-.24a4.3,4.3,0,0,1-.68-.85l0-.06a.91.91,0,0,1-.07-.14.2.2,0,0,1,0-.18l.24-.28L6,5.48a.41.41,0,0,0,.06-.36c-.19-.46-.38-.92-.59-1.37a.31.31,0,0,0-.26-.17H4.84Z"/></g></svg>