<svg width="106" height="106" viewBox="0 0 106 106" fill="none" xmlns="http://www.w3.org/2000/svg">
    <path
        d="M104.833 52.6665C104.833 81.4772 81.4772 104.833 52.6665 104.833C23.8557 104.833 0.5 81.4772 0.5 52.6665C0.5 23.8557 23.8557 0.5 52.6665 0.5C81.4772 0.5 104.833 23.8557 104.833 52.6665Z"
        fill="#2C7AE2" stroke="#FFC574" />
    <path
        d="M31.6063 34.8729V38.4422H30.3026V30.1137H31.6063V33.6831H33.0878V30.1137H34.4152V38.4422H33.0878V34.8729H31.6063Z"
        fill="#FFC574" />
    <path
        d="M38.6079 30.1137L39.9353 38.4422H38.6197L38.3945 36.9312H36.7945L36.5693 38.4422H35.3723L36.6997 30.1137H38.6079ZM37.5886 31.589L36.9605 35.8009H38.2168L37.5886 31.589Z"
        fill="#FFC574" />
    <path
        d="M45.9587 39.5607H44.6669V38.4422H41.8817V39.5607H40.6135V37.2762H41.1232C41.3128 37.0383 41.4195 36.6774 41.4432 36.1935L41.7395 30.1137H45.3899V37.2762H45.9587V39.5607ZM42.9602 31.3035L42.7232 36.1697C42.6916 36.7012 42.5691 37.07 42.3558 37.2762H44.0624V31.3035H42.9602Z"
        fill="#FFC574" />
    <path
        d="M48.3443 31.3035V33.6236H50.1339V34.8134H48.3443V37.2524H50.5962V38.4422H47.0406V30.1137H50.5962V31.3035H48.3443Z"
        fill="#FFC574" />
    <path
        d="M55.5167 30.1137V33.4808L57.0574 30.1137H58.3611L56.7611 33.4927L58.3611 38.4422H57.0219L55.8367 34.7539L55.5167 35.3845V38.4422H54.2248V35.3845L53.9048 34.742L52.7196 38.4422H51.3803L52.9922 33.5284L51.3803 30.1137H52.6841L54.2248 33.4808V30.1137H55.5167Z"
        fill="#FFC574" />
    <path
        d="M60.5717 34.8729V38.4422H59.268V30.1137H60.5717V33.6831H62.0532V30.1137H63.3806V38.4422H62.0532V34.8729H60.5717Z"
        fill="#FFC574" />
    <path
        d="M66.6014 38.4422H64.6814V30.1137H65.9851V33.2428H66.6014C67.8973 33.2428 68.5452 33.9289 68.5452 35.3012V36.3839C68.5452 37.7561 67.8973 38.4422 66.6014 38.4422ZM65.9851 37.2524H66.6014C66.8148 37.2524 66.9728 37.193 67.0755 37.074C67.1861 36.955 67.2414 36.7527 67.2414 36.4672V35.2179C67.2414 34.9323 67.1861 34.7301 67.0755 34.6111C66.9728 34.4921 66.8148 34.4326 66.6014 34.4326H65.9851V37.2524ZM70.5955 38.4422H69.2918V30.1137H70.5955V38.4422Z"
        fill="#FFC574" />
    <path
        d="M73.2397 38.4422L74.3301 34.623L74.8634 32.5765V38.4422H76.0368V30.1137H74.6027L73.536 33.5522L73.0619 35.3845V30.1137H71.9005V38.4422H73.2397ZM74.579 28.2576H75.3731C75.3731 28.67 75.2545 28.9952 75.0175 29.2332C74.7805 29.4632 74.4368 29.5782 73.9864 29.5782C73.5439 29.5782 73.2081 29.4632 72.979 29.2332C72.7577 29.0032 72.6392 28.678 72.6234 28.2576H73.4293C73.4451 28.4717 73.4965 28.6185 73.5834 28.6978C73.6703 28.7692 73.8047 28.8049 73.9864 28.8049C74.176 28.8049 74.3182 28.7652 74.4131 28.6859C74.5079 28.6066 74.5632 28.4638 74.579 28.2576Z"
        fill="#FFC574" />
    <path
        d="M29.5603 46.753V46.289C29.5603 45.932 29.501 45.6861 29.3825 45.5513C29.2719 45.4085 29.106 45.3371 28.8847 45.3371C28.4264 45.3371 28.1973 45.6108 28.1973 46.1581V46.8363H27.0003V46.2176C27.0003 45.5434 27.1622 45.0318 27.4862 44.6827C27.8101 44.3258 28.2882 44.1473 28.9203 44.1473C29.5524 44.1473 30.0344 44.3298 30.3662 44.6946C30.6981 45.0516 30.864 45.5672 30.864 46.2414V46.4555C30.864 47.3439 30.5598 47.915 29.9514 48.1689C30.5598 48.4385 30.864 49.0215 30.864 49.9179V50.5723C30.864 51.2465 30.6981 51.766 30.3662 52.1309C30.0344 52.4878 29.5524 52.6663 28.9203 52.6663C28.2882 52.6663 27.8062 52.4878 27.4743 52.1309C27.1425 51.766 26.9766 51.2465 26.9766 50.5723V49.6561H28.2092V50.6555C28.2092 51.2028 28.4343 51.4765 28.8847 51.4765C29.106 51.4765 29.2719 51.4091 29.3825 51.2742C29.501 51.1315 29.5603 50.8856 29.5603 50.5366V49.8822C29.5603 49.5014 29.4931 49.2317 29.3588 49.0731C29.2245 48.9065 29.0072 48.8232 28.7069 48.8232H28.3869V47.6334H28.7781C29.0388 47.6334 29.2324 47.566 29.3588 47.4312C29.4931 47.2963 29.5603 47.0703 29.5603 46.753Z"
        fill="#FFC574" />
    <path
        d="M34.9942 44.2425L36.3216 52.5711H35.006L34.7809 51.0601H33.1809L32.9557 52.5711H31.7586L33.086 44.2425H34.9942ZM33.9749 45.7179L33.3468 49.9298H34.6031L33.9749 45.7179Z"
        fill="#FFC574" />
    <path
        d="M39.8325 49.4657H41.0651V50.5723C41.0651 51.2465 40.8991 51.766 40.5673 52.1309C40.2354 52.4878 39.7534 52.6663 39.1213 52.6663C38.4892 52.6663 38.0073 52.4878 37.6754 52.1309C37.3436 51.766 37.1776 51.2465 37.1776 50.5723V46.2414C37.1776 45.5672 37.3436 45.0516 37.6754 44.6946C38.0073 44.3298 38.4892 44.1473 39.1213 44.1473C39.7534 44.1473 40.2354 44.3298 40.5673 44.6946C40.8991 45.0516 41.0651 45.5672 41.0651 46.2414V47.0504H39.8325V46.1581C39.8325 45.6108 39.6073 45.3371 39.1569 45.3371C38.7065 45.3371 38.4813 45.6108 38.4813 46.1581V50.6555C38.4813 51.1949 38.7065 51.4646 39.1569 51.4646C39.6073 51.4646 39.8325 51.1949 39.8325 50.6555V49.4657Z"
        fill="#FFC574" />
    <path d="M41.8324 45.4323V44.2425H45.862V45.4323H44.4991V52.5711H43.1954V45.4323H41.8324Z" fill="#FFC574" />
    <path
        d="M48.7118 44.2425C50.0076 44.2425 50.6555 44.9286 50.6555 46.3009V47.3836C50.6555 48.7558 50.0076 49.4419 48.7118 49.4419H48.0955V52.5711H46.7918V44.2425H48.7118ZM48.7118 45.4323H48.0955V48.2521H48.7118C48.9251 48.2521 49.0831 48.1927 49.1858 48.0737C49.2965 47.9547 49.3518 47.7524 49.3518 47.4669V46.2176C49.3518 45.932 49.2965 45.7298 49.1858 45.6108C49.0831 45.4918 48.9251 45.4323 48.7118 45.4323Z"
        fill="#FFC574" />
    <path
        d="M52.812 46.1581V50.6555C52.812 51.2028 53.0372 51.4765 53.4875 51.4765C53.9379 51.4765 54.1631 51.2028 54.1631 50.6555V46.1581C54.1631 45.6108 53.9379 45.3371 53.4875 45.3371C53.0372 45.3371 52.812 45.6108 52.812 46.1581ZM51.5083 50.5723V46.2414C51.5083 45.5751 51.6781 45.0595 52.0179 44.6946C52.3577 44.3298 52.8475 44.1473 53.4875 44.1473C54.1275 44.1473 54.6174 44.3298 54.9572 44.6946C55.2969 45.0595 55.4668 45.5751 55.4668 46.2414V50.5723C55.4668 51.2385 55.2969 51.7541 54.9572 52.119C54.6174 52.4839 54.1275 52.6663 53.4875 52.6663C52.8475 52.6663 52.3577 52.4839 52.0179 52.119C51.6781 51.7541 51.5083 51.2385 51.5083 50.5723Z"
        fill="#FFC574" />
    <path
        d="M58.0089 52.5711L59.0992 48.7519L59.6326 46.7054V52.5711H60.8059V44.2425H59.3718L58.3051 47.681L57.8311 49.5133V44.2425H56.6696V52.5711H58.0089ZM59.3481 42.3864H60.1422C60.1422 42.7989 60.0237 43.1241 59.7866 43.3621C59.5496 43.5921 59.2059 43.7071 58.7555 43.7071C58.3131 43.7071 57.9772 43.5921 57.7481 43.3621C57.5269 43.132 57.4084 42.8068 57.3926 42.3864H58.1985C58.2143 42.6006 58.2656 42.7473 58.3526 42.8267C58.4395 42.898 58.5738 42.9337 58.7555 42.9337C58.9452 42.9337 59.0874 42.8941 59.1822 42.8148C59.277 42.7354 59.3323 42.5927 59.3481 42.3864Z"
        fill="#FFC574" />
    <path
        d="M68.2692 44.2425V51.4051H68.8499V53.6895H67.5818V52.5711H62.1062V44.2425H63.4099V51.3813H64.5358V44.2425H65.8395V51.3813H66.9655V44.2425H68.2692Z"
        fill="#FFC574" />
    <path
        d="M72.3451 48.7519L71.2548 52.5711H69.9155V44.2425H71.077V49.5133L71.5511 47.681L72.6177 44.2425H74.0518V52.5711H72.8785V46.7054L72.3451 48.7519Z"
        fill="#FFC574" />
    <path
        d="M78.3038 52.5711L77.0356 49.2516L76.6327 50.013V52.5711H75.3289V44.2425H76.6327V47.8714L78.3393 44.2425H79.643L77.8297 47.9547L79.643 52.5711H78.3038Z"
        fill="#FFC574" />
    <path
        d="M40.4601 58.3714C41.7559 58.3714 42.4038 59.0575 42.4038 60.4297V61.5125C42.4038 62.8847 41.7559 63.5708 40.4601 63.5708H39.8438V66.7H38.5401V58.3714H40.4601ZM40.4601 59.5612H39.8438V62.381H40.4601C40.6734 62.381 40.8315 62.3215 40.9342 62.2025C41.0448 62.0836 41.1001 61.8813 41.1001 61.5957V60.3464C41.1001 60.0609 41.0448 59.8586 40.9342 59.7396C40.8315 59.6207 40.6734 59.5612 40.4601 59.5612Z"
        fill="#FFC574" />
    <path
        d="M44.5603 60.287V64.7844C44.5603 65.3317 44.7855 65.6054 45.2359 65.6054C45.6862 65.6054 45.9114 65.3317 45.9114 64.7844V60.287C45.9114 59.7397 45.6862 59.466 45.2359 59.466C44.7855 59.466 44.5603 59.7397 44.5603 60.287ZM43.2566 64.7011V60.3702C43.2566 59.704 43.4265 59.1884 43.7662 58.8235C44.106 58.4586 44.5959 58.2762 45.2359 58.2762C45.8759 58.2762 46.3657 58.4586 46.7055 58.8235C47.0453 59.1884 47.2151 59.704 47.2151 60.3702V64.7011C47.2151 65.3674 47.0453 65.883 46.7055 66.2478C46.3657 66.6127 45.8759 66.7952 45.2359 66.7952C44.5959 66.7952 44.106 66.6127 43.7662 66.2478C43.4265 65.883 43.2566 65.3674 43.2566 64.7011Z"
        fill="#FFC574" />
    <path
        d="M50.9661 63.5946H52.1987V64.7011C52.1987 65.3753 52.0328 65.8949 51.7009 66.2598C51.369 66.6167 50.8871 66.7952 50.255 66.7952C49.6229 66.7952 49.1409 66.6167 48.809 66.2598C48.4772 65.8949 48.3113 65.3753 48.3113 64.7011V60.3702C48.3113 59.696 48.4772 59.1804 48.809 58.8235C49.1409 58.4586 49.6229 58.2762 50.255 58.2762C50.8871 58.2762 51.369 58.4586 51.7009 58.8235C52.0328 59.1804 52.1987 59.696 52.1987 60.3702V61.1793H50.9661V60.287C50.9661 59.7397 50.7409 59.466 50.2905 59.466C49.8401 59.466 49.615 59.7397 49.615 60.287V64.7844C49.615 65.3238 49.8401 65.5935 50.2905 65.5935C50.7409 65.5935 50.9661 65.3238 50.9661 64.7844V63.5946Z"
        fill="#FFC574" />
    <path
        d="M55.8934 63.5946H57.126V64.7011C57.126 65.3753 56.9601 65.8949 56.6282 66.2598C56.2964 66.6167 55.8144 66.7952 55.1823 66.7952C54.5502 66.7952 54.0682 66.6167 53.7364 66.2598C53.4045 65.8949 53.2386 65.3753 53.2386 64.7011V60.3702C53.2386 59.696 53.4045 59.1804 53.7364 58.8235C54.0682 58.4586 54.5502 58.2762 55.1823 58.2762C55.8144 58.2762 56.2964 58.4586 56.6282 58.8235C56.9601 59.1804 57.126 59.696 57.126 60.3702V61.1793H55.8934V60.287C55.8934 59.7397 55.6682 59.466 55.2179 59.466C54.7675 59.466 54.5423 59.7397 54.5423 60.287V64.7844C54.5423 65.3238 54.7675 65.5935 55.2179 65.5935C55.6682 65.5935 55.8934 65.3238 55.8934 64.7844V63.5946Z"
        fill="#FFC574" />
    <path
        d="M60.7022 62.8807L59.6119 66.7H58.2726V58.3714H59.4341V63.6422L59.9082 61.8099L60.9748 58.3714H62.4089V66.7H61.2356V60.8343L60.7022 62.8807Z"
        fill="#FFC574" />
    <path
        d="M66.1157 62.8807L65.0253 66.7H63.6861V58.3714H64.8475V63.6422L65.3216 61.8099L66.3883 58.3714H67.8224V66.7H66.649V60.8343L66.1157 62.8807Z"
        fill="#FFC574" />
    <path
        d="M46.2942 74.5467C46.2942 74.1898 46.2349 73.9439 46.1164 73.809C46.0058 73.6662 45.8399 73.5949 45.6186 73.5949C45.1683 73.5949 44.9431 73.8685 44.9431 74.4158V75.3082H43.7105V74.4991C43.7105 73.8249 43.8764 73.3093 44.2083 72.9524C44.5401 72.5875 45.0221 72.4051 45.6542 72.4051C46.2863 72.4051 46.7683 72.5875 47.1001 72.9524C47.432 73.3093 47.5979 73.8249 47.5979 74.4991C47.5979 74.983 47.5071 75.443 47.3253 75.8793C47.1515 76.3155 46.9342 76.6883 46.6735 76.9977C46.4206 77.307 46.1678 77.5966 45.9149 77.8662C45.6621 78.1359 45.4448 78.4096 45.2631 78.6872C45.0893 78.9569 45.0023 79.2147 45.0023 79.4606C45.0023 79.5399 45.0063 79.5994 45.0142 79.639H47.4794V80.8288H43.7105V79.8056C43.7105 79.3535 43.7974 78.941 43.9712 78.5682C44.153 78.1875 44.3702 77.8583 44.6231 77.5807C44.8759 77.2951 45.1288 77.0175 45.3816 76.7478C45.6344 76.4702 45.8478 76.145 46.0216 75.7722C46.2033 75.3994 46.2942 74.9909 46.2942 74.5467Z"
        fill="#FFC574" />
    <path
        d="M49.9622 74.4158V78.9133C49.9622 79.4606 50.1874 79.7342 50.6377 79.7342C51.0881 79.7342 51.3133 79.4606 51.3133 78.9133V74.4158C51.3133 73.8685 51.0881 73.5949 50.6377 73.5949C50.1874 73.5949 49.9622 73.8685 49.9622 74.4158ZM48.6585 78.83V74.4991C48.6585 73.8328 48.8284 73.3172 49.1681 72.9524C49.5079 72.5875 49.9977 72.4051 50.6377 72.4051C51.2778 72.4051 51.7676 72.5875 52.1074 72.9524C52.4471 73.3172 52.617 73.8328 52.617 74.4991V78.83C52.617 79.4963 52.4471 80.0118 52.1074 80.3767C51.7676 80.7416 51.2778 80.924 50.6377 80.924C49.9977 80.924 49.5079 80.7416 49.1681 80.3767C48.8284 80.0118 48.6585 79.4963 48.6585 78.83Z"
        fill="#FFC574" />
    <path
        d="M56.4035 74.5467C56.4035 74.1898 56.3443 73.9439 56.2257 73.809C56.1151 73.6662 55.9492 73.5949 55.728 73.5949C55.2776 73.5949 55.0524 73.8685 55.0524 74.4158V75.3082H53.8198V74.4991C53.8198 73.8249 53.9857 73.3093 54.3176 72.9524C54.6494 72.5875 55.1314 72.4051 55.7635 72.4051C56.3956 72.4051 56.8776 72.5875 57.2094 72.9524C57.5413 73.3093 57.7072 73.8249 57.7072 74.4991C57.7072 74.983 57.6164 75.443 57.4346 75.8793C57.2608 76.3155 57.0435 76.6883 56.7828 76.9977C56.5299 77.307 56.2771 77.5966 56.0243 77.8662C55.7714 78.1359 55.5541 78.4096 55.3724 78.6872C55.1986 78.9569 55.1117 79.2147 55.1117 79.4606C55.1117 79.5399 55.1156 79.5994 55.1235 79.639H57.5887V80.8288H53.8198V79.8056C53.8198 79.3535 53.9067 78.941 54.0805 78.5682C54.2623 78.1875 54.4796 77.8583 54.7324 77.5807C54.9852 77.2951 55.2381 77.0175 55.4909 76.7478C55.7438 76.4702 55.9571 76.145 56.1309 75.7722C56.3127 75.3994 56.4035 74.9909 56.4035 74.5467Z"
        fill="#FFC574" />
    <path
        d="M59.6804 74.4753V73.5473C60.1308 73.5473 60.4508 73.46 60.6404 73.2855C60.83 73.111 60.9881 72.8493 61.1145 72.5002H61.9915V80.8288H60.6878V74.4753H59.6804Z"
        fill="#FFC574" />
    <path
        d="M8.18241 62.0483L7.6672 62.1611L7.72573 62.4285C7.8818 63.1415 7.58376 63.5804 6.8316 63.745L5.58597 64.0176C4.83381 64.1823 4.37969 63.9081 4.22362 63.1951L4.16509 62.9277L3.61727 63.0476L3.4631 62.3433L4.01091 62.2233L3.95239 61.956C3.79631 61.2429 4.09435 60.8041 4.84651 60.6394L6.09214 60.3668C6.8443 60.2022 7.29842 60.4763 7.4545 61.1894L7.51303 61.4568L8.02823 61.344L8.18241 62.0483ZM4.58498 61.8175L4.64351 62.0849L6.88695 61.5938L6.82842 61.3264C6.77608 61.0873 6.59774 61.001 6.2934 61.0677L4.95646 61.3603C4.65647 61.426 4.53264 61.5784 4.58498 61.8175ZM7.04112 62.2981L4.79768 62.7892L4.85621 63.0566C4.90855 63.2957 5.08472 63.3825 5.38472 63.3168L6.72165 63.0241C7.02599 62.9575 7.15199 62.8047 7.09965 62.5655L7.04112 62.2981Z"
        fill="#FFC574" />
    <path
        d="M3.52859 59.0094L4.81795 58.8297L4.6788 57.8312L5.34001 57.7391L5.47916 58.7375L6.83465 58.5486L6.65955 57.2923L7.32076 57.2001L7.59723 59.1838L2.96875 59.8289L2.69228 57.8452L3.35349 57.7531L3.52859 59.0094Z"
        fill="#FFC574" />
    <path
        d="M7.6464 53.4438L7.69416 54.1699L7.06797 54.2111L7.17094 55.7766L7.79714 55.7354L7.84402 56.4482L6.56499 56.5323L6.54615 56.2459C6.4059 56.1481 6.19989 56.1014 5.92811 56.1059L2.51306 56.1633L2.37809 54.1115L6.3884 53.8477L6.36736 53.528L7.6464 53.4438ZM3.13409 55.4333L5.86746 55.3873C6.16618 55.3855 6.37722 55.4408 6.50058 55.5531L6.43748 54.5938L3.09334 54.8138L3.13409 55.4333Z"
        fill="#FFC574" />
    <path
        d="M2.99295 51.9808L4.29475 51.9894L4.30144 50.9813L4.96902 50.9858L4.96234 51.9938L6.3309 52.0029L6.33931 50.7345L7.00689 50.7389L6.99361 52.7417L2.3205 52.7107L2.33378 50.7079L3.00136 50.7124L2.99295 51.9808Z"
        fill="#FFC574" />
    <path
        d="M2.44376 48.4725C2.49543 47.7444 2.90529 47.4076 3.67333 47.4621L4.27932 47.5051C5.04736 47.5596 5.40554 47.9509 5.35386 48.679L5.32928 49.0253L7.08067 49.1496L7.02868 49.8821L2.36719 49.5513L2.44376 48.4725ZM3.10969 48.5197L3.08511 48.866L4.66336 48.978L4.68793 48.6318C4.69644 48.5119 4.66945 48.4207 4.60695 48.3583C4.54477 48.2914 4.43377 48.2523 4.27395 48.241L3.57472 48.1913C3.4149 48.18 3.29949 48.203 3.22848 48.2605C3.15779 48.3134 3.11819 48.3999 3.10969 48.5197Z"
        fill="#FFC574" />
    <path
        d="M2.83444 44.8065L7.56573 44.6927L7.46628 45.427L6.60907 45.4389L6.48812 46.3321L7.31128 46.5715L7.22079 47.2397L2.69019 45.8716L2.83444 44.8065ZM3.57773 45.4865L5.87218 46.1543L5.96715 45.4531L3.57773 45.4865Z"
        fill="#FFC574" />
    <path
        d="M7.58942 44.4612L6.93584 44.3251C6.97214 44.1508 6.97004 44.0299 6.92955 43.9623C6.88561 43.8895 6.7617 43.8296 6.55781 43.7826L3.12486 42.945L3.54814 40.9124L8.12322 41.8651L7.97078 42.5971L4.04929 41.7805L3.91863 42.4079L6.66695 43.0621C7.08252 43.1622 7.36284 43.3115 7.50792 43.51C7.65299 43.7084 7.68787 43.9884 7.61256 44.3501L7.58942 44.4612Z"
        fill="#FFC574" />
    <path
        d="M8.6662 39.7455L8.37203 40.7862L3.875 39.5151L4.07474 38.8085L5.76434 39.286L5.85877 38.952C6.0573 38.2496 6.52704 38.0031 7.26798 38.2125L7.85259 38.3778C8.59353 38.5872 8.86473 39.0431 8.6662 39.7455ZM7.92934 39.898L8.02377 39.5639C8.05645 39.4483 8.04854 39.3535 8.00004 39.2797C7.95274 39.2016 7.852 39.1407 7.69782 39.0971L7.02326 38.9065C6.86908 38.8629 6.75139 38.862 6.6702 38.9038C6.59022 38.9413 6.53389 39.0179 6.5012 39.1335L6.40678 39.4676L7.92934 39.898Z"
        fill="#FFC574" />
    <path
        d="M7.53403 36.6418L9.41622 37.3263L9.16522 38.0164L4.77344 36.4192L5.02443 35.7291L6.90663 36.4136L7.19185 35.6293L5.30966 34.9448L5.56522 34.2421L9.957 35.8394L9.70144 36.5421L7.81925 35.8575L7.53403 36.6418Z"
        fill="#FFC574" />
    <path
        d="M10.8487 33.6868L10.3916 34.667L6.15625 32.6919L6.46662 32.0263L8.0579 32.7684L8.20462 32.4538C8.5131 31.7923 9.01626 31.6242 9.71408 31.9496L10.2647 32.2064C10.9625 32.5318 11.1572 33.0253 10.8487 33.6868ZM10.0969 33.7193L10.2436 33.4046C10.2944 33.2957 10.3018 33.2009 10.2657 33.1203C10.2316 33.0356 10.1419 32.9594 9.99666 32.8917L9.36136 32.5954C9.21615 32.5277 9.10012 32.508 9.01328 32.5362C8.92832 32.5605 8.86045 32.627 8.80966 32.7359L8.66294 33.0506L10.0969 33.7193ZM11.7995 31.6478L11.4892 32.3133L7.25383 30.3383L7.5642 29.6727L11.7995 31.6478Z"
        fill="#FFC574" />
    <path
        d="M12.6114 30.1344L11.0626 28.531L10.2184 27.6967L13.0687 29.3424L13.3992 28.77L9.35206 26.4334L8.94816 27.1329L10.3186 28.618L11.0755 29.3633L8.51421 27.8846L8.18709 28.4512L12.2342 30.7878L12.6114 30.1344ZM8.03955 26.6238L8.26319 26.2364C8.46362 26.3521 8.58827 26.5012 8.63715 26.6836C8.68216 26.8637 8.64125 27.0637 8.51441 27.2834C8.38979 27.4992 8.23932 27.6308 8.06301 27.678C7.88892 27.7214 7.69751 27.688 7.48878 27.5777L7.71576 27.1846C7.82428 27.237 7.91005 27.2531 7.97307 27.2329C8.03224 27.2106 8.08742 27.1551 8.1386 27.0664C8.19201 26.9739 8.21279 26.8934 8.20095 26.8249C8.18911 26.7564 8.13531 26.6893 8.03955 26.6238Z"
        fill="#FFC574" />
    <path
        d="M14.0575 24.1551L15.6552 25.3628L15.2124 25.9486L11.4844 23.1306L11.9272 22.5448L13.5249 23.7525L14.0281 23.0868L12.4304 21.8791L12.8813 21.2826L16.6093 24.1006L16.1584 24.6971L14.5607 23.4894L14.0575 24.1551Z"
        fill="#FFC574" />
    <path
        d="M14.8807 19.9129L15.8591 20.7716L16.5241 20.0139L17.0259 20.4543L16.3609 21.212L17.3895 22.1147L18.2262 21.1614L18.728 21.6018L17.4068 23.1071L13.8945 20.0244L15.2157 18.5191L15.7174 18.9595L14.8807 19.9129Z"
        fill="#FFC574" />
    <path
        d="M20.4832 19.7865L18.6589 18.9793L18.8017 19.4416L19.8193 20.4539L19.3014 20.9745L15.9883 17.6787L16.5062 17.1581L17.9498 18.5941L17.1842 16.4765L17.7021 15.9559L18.4584 18.149L21.0152 19.2517L20.4832 19.7865Z"
        fill="#FFC574" />
    <path
        d="M19.4385 15.8314L21.1124 17.7199C21.3161 17.9497 21.5128 17.9805 21.7027 17.8122C21.8925 17.644 21.8856 17.4449 21.6819 17.2151L20.0081 15.3266C19.8044 15.0967 19.6076 15.066 19.4178 15.2342C19.2279 15.4025 19.2349 15.6016 19.4385 15.8314ZM20.5318 18.172L18.92 16.3534C18.672 16.0737 18.5517 15.7937 18.5592 15.5135C18.5666 15.2334 18.7052 14.9737 18.975 14.7346C19.2448 14.4955 19.5192 14.3891 19.7982 14.4154C20.0772 14.4416 20.3407 14.5947 20.5887 14.8744L22.2005 16.693C22.4485 16.9728 22.5688 17.2528 22.5613 17.5329C22.5539 17.8131 22.4153 18.0727 22.1455 18.3118C21.8757 18.551 21.6013 18.6574 21.3223 18.6311C21.0433 18.6048 20.7798 18.4518 20.5318 18.172Z"
        fill="#FFC574" />
    <path
        d="M21.4423 12.7404L23.8651 15.0709L22.2756 12.1157L23.0929 11.503L25.8959 15.2423L25.3404 15.6588L23.3302 12.9772L24.9344 15.9631L24.3788 16.3795L21.9587 14.0637L23.9408 16.7079L23.428 17.0923L20.625 13.353L21.4423 12.7404Z"
        fill="#FFC574" />
    <path
        d="M25.2931 10.0284L27.4863 12.5762L26.1814 9.48474L27.0527 8.95157L29.492 12.9376L28.8998 13.3L27.1504 10.4415L28.467 13.5649L27.8748 13.9273L25.6829 11.3943L27.4079 14.2131L26.8612 14.5476L24.4219 10.5615L25.2931 10.0284Z"
        fill="#FFC574" />
    <path
        d="M29.41 8.43975L29.9989 9.60079L30.8979 9.14481L31.1999 9.74022L30.3009 10.1962L30.9199 11.4168L32.0512 10.843L32.3531 11.4384L30.5669 12.3443L28.4531 8.17651L30.2393 7.2706L30.5413 7.866L29.41 8.43975Z"
        fill="#FFC574" />
    <path
        d="M32.2756 6.34456C32.9466 6.05742 33.4336 6.2678 33.7365 6.97569L33.9755 7.53422C34.2784 8.24211 34.0943 8.73962 33.4232 9.02676L33.1041 9.16333L33.7948 10.7776L33.1196 11.0665L31.2812 6.77002L32.2756 6.34456ZM32.5382 6.95834L32.219 7.09491L32.8415 8.54955L33.1606 8.41299C33.2711 8.36572 33.3398 8.30001 33.3667 8.21587C33.3978 8.12998 33.3818 8.01338 33.3187 7.86608L33.043 7.22161C32.9799 7.07431 32.9066 6.98222 32.8231 6.94535C32.7436 6.90674 32.6487 6.91107 32.5382 6.95834Z"
        fill="#FFC574" />
    <path
        d="M35.6087 5.05755L36.3022 4.81605L37.8391 9.22934L37.1456 9.47084L36.5264 7.69291C36.4322 7.90953 36.2632 8.06028 36.0194 8.14517C35.742 8.24177 35.4962 8.22605 35.2819 8.098C35.0704 7.96429 34.9105 7.74192 34.8022 7.43089L34.1523 5.5647L34.8459 5.3232L35.476 7.13265C35.5257 7.27555 35.6016 7.37166 35.7036 7.42097C35.8041 7.46608 35.9133 7.46815 36.0309 7.42716C36.1444 7.38764 36.2195 7.31908 36.2562 7.22147C36.2915 7.11965 36.2835 6.99519 36.2322 6.84808L35.6087 5.05755Z"
        fill="#FFC574" />
    <path
        d="M38.9819 4.7099L39.314 5.96866L40.2887 5.71151L40.459 6.35702L39.4843 6.61417L39.8334 7.93748L41.0599 7.61392L41.2302 8.25944L39.2936 8.77033L38.1016 4.25171L40.0381 3.74082L40.2084 4.38633L38.9819 4.7099Z"
        fill="#FFC574" />
    <path
        d="M43.1188 6.06482L43.7998 5.92946L43.9209 6.53842C43.9946 6.90947 43.9598 7.21362 43.8164 7.45086C43.6721 7.68375 43.4253 7.83489 43.0761 7.90431C42.7268 7.97372 42.441 7.92843 42.2187 7.76844C41.9954 7.60408 41.8469 7.33637 41.7731 6.96533L41.2994 4.58188C41.2256 4.21083 41.2609 3.90886 41.4052 3.67598C41.5486 3.43874 41.795 3.28541 42.1442 3.21599C42.4934 3.14658 42.7796 3.19405 43.0029 3.35841C43.2253 3.5184 43.3734 3.78393 43.4471 4.15498L43.5356 4.60023L42.8546 4.73559L42.757 4.2445C42.6971 3.94329 42.5428 3.81742 42.294 3.86688C42.0451 3.91634 41.9507 4.09167 42.0105 4.39287L42.5025 6.86799C42.5615 7.16483 42.7154 7.28852 42.9643 7.23906C43.2131 7.18961 43.308 7.01646 43.249 6.71962L43.1188 6.06482Z"
        fill="#FFC574" />
    <path
        d="M46.5105 7.29613L45.5526 5.54626L45.385 6.00013L45.5777 7.42249L44.85 7.52106L44.2227 2.89014L44.9504 2.79156L45.2237 4.80932L45.903 2.66251L46.6307 2.56394L45.8982 4.76512L47.258 7.19486L46.5105 7.29613Z"
        fill="#FFC574" />
    <path
        d="M48.8974 4.92489L48.4169 7.10177L47.6639 7.14841L47.375 2.48413L48.028 2.44368L48.2108 5.3955L48.4138 4.35285L48.8942 2.39002L49.7005 2.34008L49.9894 7.00436L49.3297 7.04522L49.1263 3.76024L48.8974 4.92489Z"
        fill="#FFC574" />
    <path
        d="M51.9717 6.9622L52.6244 4.83059L52.9454 3.68791L52.8862 6.97866L53.547 6.99055L53.6311 2.31809L52.8235 2.30355L52.188 4.2218L51.9025 5.24493L51.9557 2.28793L51.3016 2.27616L51.2175 6.94862L51.9717 6.9622ZM52.8289 1.26202L53.2761 1.27007C53.2719 1.50147 53.2019 1.68271 53.066 1.81381C52.9301 1.94046 52.7354 2.0015 52.4818 1.99693C52.2326 1.99244 52.0446 1.92452 51.9179 1.79314C51.7956 1.66185 51.7321 1.4782 51.7275 1.24219L52.1814 1.25036C52.1881 1.37067 52.2156 1.45352 52.2637 1.4989C52.3119 1.53983 52.3872 1.56122 52.4896 1.56306C52.5964 1.56498 52.6769 1.54417 52.7311 1.50063C52.7853 1.4571 52.8179 1.37756 52.8289 1.26202Z"
        fill="#FFC574" />
    <path
        d="M58.2116 3.36365L57.6296 7.32677L56.903 7.22007L57.582 2.59644L59.874 2.93302L59.195 7.55665L58.4553 7.44801L59.0373 3.4849L58.2116 3.36365Z"
        fill="#FFC574" />
    <path
        d="M62.4862 3.44586C63.1991 3.6026 63.4729 4.05697 63.3075 4.80898L63.1771 5.40233C63.0117 6.15433 62.5726 6.45197 61.8597 6.29523L61.5207 6.22069L61.1437 7.93552L60.4264 7.77783L61.4299 3.21362L62.4862 3.44586ZM62.3429 4.09789L62.0038 4.02335L61.6641 5.56866L62.0031 5.6432C62.1205 5.66901 62.2146 5.65552 62.2854 5.60274C62.3606 5.55092 62.4154 5.44676 62.4498 5.29027L62.6003 4.60564C62.6347 4.44916 62.6287 4.33162 62.5822 4.25304C62.54 4.17541 62.4602 4.1237 62.3429 4.09789Z"
        fill="#FFC574" />
    <path
        d="M64.8669 5.13919L64.1627 7.56248C64.077 7.85737 64.1559 8.04022 64.3995 8.11102C64.6431 8.18181 64.8078 8.06976 64.8935 7.77486L65.5977 5.35158C65.6834 5.05668 65.6045 4.87384 65.3609 4.80304C65.1173 4.73224 64.9526 4.84429 64.8669 5.13919ZM63.4705 7.31266L64.1487 4.97913C64.253 4.62013 64.4256 4.36903 64.6665 4.22584C64.9074 4.08265 65.201 4.06136 65.5472 4.16196C65.8934 4.26257 66.1298 4.43787 66.2564 4.68788C66.383 4.93788 66.3942 5.24239 66.2899 5.60139L65.6117 7.93492C65.5074 8.29393 65.3348 8.54503 65.0939 8.68822C64.853 8.83141 64.5594 8.8527 64.2132 8.7521C63.867 8.65149 63.6306 8.47619 63.504 8.22618C63.3773 7.97617 63.3662 7.67167 63.4705 7.31266Z"
        fill="#FFC574" />
    <path
        d="M67.9886 5.69774L67.5481 6.92279L68.4968 7.26387L68.2709 7.8921L67.3223 7.55102L66.8592 8.83889L68.0528 9.26806L67.8269 9.89629L65.9423 9.21864L67.5234 4.82104L69.4081 5.49869L69.1822 6.12692L67.9886 5.69774Z"
        fill="#FFC574" />
    <path
        d="M70.1487 10.8524L70.2305 8.85923L69.8529 9.16165L69.2844 10.4796L68.6101 10.1888L70.4609 5.89771L71.1352 6.18856L70.3288 8.05824L72.018 6.56931L72.6923 6.86016L70.9294 8.3682L70.8414 11.1512L70.1487 10.8524Z"
        fill="#FFC574" />
    <path
        d="M72.8679 7.67837L73.1719 7.08398L75.1928 8.11748L74.8888 8.71187L74.2053 8.3623L72.3815 11.9286L71.7276 11.5943L73.5515 8.02794L72.8679 7.67837Z"
        fill="#FFC574" />
    <path
        d="M77.299 12.4546L76.1863 14.1199L75.5757 13.7119L78.1719 9.82617L78.7825 10.2341L77.6698 11.8995L78.3637 12.3631L79.4764 10.6977L80.0981 11.1131L77.5019 14.9989L76.8802 14.5835L77.9928 12.9182L77.299 12.4546Z"
        fill="#FFC574" />
    <path
        d="M82.7073 13.0525L80.425 17.1985L79.8405 16.7431L80.2615 15.9963L79.5505 15.4424L78.9294 16.0333L78.3975 15.6189L81.8594 12.3919L82.7073 13.0525ZM81.7456 13.3527L80.014 14.9995L80.5723 15.4344L81.7456 13.3527Z"
        fill="#FFC574" />
    <path
        d="M82.4586 19.8287L81.917 19.3427L82.3361 18.8756L81.1684 17.8278L80.7493 18.2949L80.2176 17.8178L81.0737 16.8638L81.2874 17.0555C81.456 17.0275 81.636 16.9169 81.8273 16.7238L84.2299 14.2961L85.7603 15.6694L83.0762 18.6607L83.3147 18.8747L82.4586 19.8287ZM84.2958 15.2523L82.3728 17.1954C82.1604 17.4054 81.9708 17.5134 81.8041 17.5192L82.5196 18.1613L84.7579 15.6669L84.2958 15.2523Z"
        fill="#FFC574" />
    <path
        d="M86.8286 17.6473L85.8903 18.5497L86.5891 19.2763L86.1079 19.7391L85.4092 19.0125L84.4227 19.9612L85.302 20.8754L84.8208 21.3382L83.4325 19.8947L86.8008 16.6553L88.1891 18.0988L87.7079 18.5616L86.8286 17.6473Z"
        fill="#FFC574" />
    <path
        d="M90.3233 20.5562L88.8639 21.756L90.8745 21.2266L91.3408 21.7939L89.3038 22.3017L87.7308 24.7615L87.2517 24.1788L88.4265 22.3488L88.0387 22.4343L86.7133 23.5238L86.2512 22.9617L87.5766 21.8722L87.7406 21.504L85.7128 22.3067L85.2337 21.724L87.9402 20.6744L88.8438 18.7563L89.3101 19.3236L88.4017 21.1938L89.8612 19.9941L90.3233 20.5562Z"
        fill="#FFC574" />
    <path
        d="M90.0899 24.6499L88.4391 25.7841L88.0233 25.1788L91.875 22.5325L92.2909 23.1377L90.6401 24.2719L91.1127 24.9597L92.7634 23.8256L93.1868 24.4418L89.3351 27.0882L88.9117 26.4719L90.5624 25.3377L90.0899 24.6499Z"
        fill="#FFC574" />
    <path
        d="M90.6019 29.1081L90.0728 28.1649L94.1484 25.8784L94.5077 26.5189L92.9765 27.3779L93.1463 27.6807C93.5034 28.3173 93.3462 28.8239 92.6747 29.2007L92.1449 29.4979C91.4734 29.8746 90.959 29.7447 90.6019 29.1081ZM91.0143 28.4787L91.1842 28.7815C91.243 28.8863 91.3156 28.9476 91.4022 28.9654C91.4909 28.987 91.6051 28.9587 91.7448 28.8803L92.3562 28.5373C92.4959 28.4589 92.5796 28.3762 92.6074 28.2892C92.6373 28.2061 92.6229 28.1121 92.5641 28.0073L92.3942 27.7046L91.0143 28.4787ZM91.7027 31.0703L91.3434 30.4298L95.4191 28.1433L95.7784 28.7838L91.7027 31.0703Z"
        fill="#FFC574" />
    <path
        d="M96.0871 30.9388L94.9044 31.4829L95.3257 32.3987L94.7192 32.6777L94.2979 31.7619L93.0546 32.3338L93.5847 33.4862L92.9781 33.7652L92.1412 31.9457L96.3867 29.9927L97.2237 31.8122L96.6172 32.0912L96.0871 30.9388Z"
        fill="#FFC574" />
    <path
        d="M96.2347 36.6211L94.3285 37.2358L94.1031 36.5369L98.5508 35.1025L98.7762 35.8015L96.87 36.4162L97.1262 37.2104L99.0323 36.5957L99.2618 37.3073L94.8142 38.7417L94.5847 38.03L96.4908 37.4153L96.2347 36.6211Z"
        fill="#FFC574" />
    <path
        d="M98.8742 39.8931L96.4222 40.4896C96.1238 40.5622 96.0046 40.7217 96.0645 40.9682C96.1245 41.2147 96.3037 41.3017 96.6021 41.2291L99.0541 40.6326C99.3525 40.56 99.4717 40.4005 99.4117 40.154C99.3518 39.9075 99.1726 39.8205 98.8742 39.8931ZM96.294 39.765L98.6552 39.1906C99.0185 39.1022 99.3222 39.1268 99.5663 39.2644C99.8105 39.4019 99.9752 39.6459 100.06 39.9961C100.146 40.3464 100.111 40.6388 99.9577 40.8731C99.804 41.1075 99.5455 41.2688 99.1823 41.3572L96.8211 41.9316C96.4578 42.02 96.1541 41.9954 95.9099 41.8578C95.6658 41.7203 95.5011 41.4763 95.4158 41.1261C95.3306 40.7758 95.3649 40.4834 95.5186 40.2491C95.6722 40.0147 95.9307 39.8534 96.294 39.765Z"
        fill="#FFC574" />
    <path
        d="M100.66 43.0743C100.727 43.4467 100.687 43.734 100.543 43.9362C100.402 44.1376 100.153 44.2705 99.7934 44.3347L99.6291 44.3641C99.156 44.4487 98.8193 44.3484 98.6191 44.0632C98.5431 44.4475 98.2466 44.6859 97.7297 44.7784L97.3551 44.8453C97.0002 44.9088 96.7117 44.8632 96.4896 44.7085C96.2727 44.5574 96.1321 44.3022 96.0679 43.9429L95.8646 42.806L100.465 41.9834L100.66 43.0743ZM98.1216 43.4808L98.064 43.1587L96.651 43.4114L96.7251 43.8254C96.7478 43.9525 96.7975 44.0408 96.8742 44.0904C96.9553 44.1392 97.079 44.1487 97.2455 44.1189L97.6464 44.0472C97.8567 44.0096 97.9946 43.9465 98.0602 43.858C98.1309 43.773 98.1513 43.6472 98.1216 43.4808ZM99.9992 43.1721L99.9369 42.8238L98.7212 43.0412L98.7717 43.3238C98.7975 43.4684 98.854 43.5691 98.941 43.6258C99.0288 43.687 99.1603 43.7019 99.3356 43.6706L99.5919 43.6247C99.9073 43.5683 100.043 43.4175 99.9992 43.1721Z"
        fill="#FFC574" />
    <path
        d="M100.023 45.9788L97.5152 46.2598C97.21 46.294 97.0716 46.4372 97.0998 46.6893C97.1281 46.9414 97.2948 47.0504 97.6 47.0162L100.108 46.7351C100.413 46.7009 100.551 46.5577 100.523 46.3056C100.495 46.0535 100.328 45.9445 100.023 45.9788ZM97.4799 45.5248L99.8948 45.2542C100.266 45.2125 100.565 45.2754 100.789 45.4428C101.014 45.6102 101.147 45.873 101.187 46.2313C101.227 46.5895 101.156 46.8751 100.974 47.0881C100.792 47.3011 100.515 47.4284 100.143 47.4701L97.7282 47.7407C97.3567 47.7824 97.0585 47.7195 96.8338 47.5521C96.609 47.3847 96.4765 47.1219 96.4364 46.7637C96.3962 46.4054 96.4672 46.1198 96.6494 45.9068C96.8315 45.6938 97.1083 45.5665 97.4799 45.5248Z"
        fill="#FFC574" />
    <path
        d="M98.4778 49.746L98.5128 50.4394L97.8927 50.4707C97.5149 50.4897 97.219 50.4111 97.0051 50.2347C96.7957 50.0581 96.682 49.792 96.664 49.4364C96.6461 49.0808 96.7324 48.8046 96.923 48.6078C97.1181 48.4108 97.4045 48.3028 97.7823 48.2837L100.209 48.1613C100.587 48.1422 100.881 48.221 101.09 48.3976C101.304 48.5739 101.42 48.8399 101.438 49.1955C101.456 49.5511 101.367 49.8274 101.172 50.0244C100.982 50.2212 100.698 50.3292 100.32 50.3482L99.8663 50.3711L99.8313 49.6777L100.331 49.6524C100.638 49.637 100.785 49.5025 100.772 49.2492C100.759 48.9958 100.6 48.8769 100.293 48.8923L97.7727 49.0195C97.4704 49.0348 97.3257 49.1691 97.3385 49.4224C97.3512 49.6758 97.5088 49.7949 97.811 49.7796L98.4778 49.746Z"
        fill="#FFC574" />
    <path
        d="M100.801 51.1192L101.469 51.1287L101.436 53.3983L100.769 53.3888L100.78 52.6211L96.7747 52.5642L96.7851 51.8299L100.79 51.8868L100.801 51.1192Z"
        fill="#FFC574" />
    <path
        d="M101.318 55.5765C101.261 56.3042 100.848 56.6378 100.081 56.5776L99.4749 56.53C98.7073 56.4697 98.352 56.0757 98.4092 55.348L98.4364 55.002L96.686 54.8645L96.7435 54.1324L101.402 54.4983L101.318 55.5765ZM100.652 55.5242L100.679 55.1781L99.1019 55.0542L99.0747 55.4003C99.0653 55.5201 99.0916 55.6115 99.1537 55.6744C99.2153 55.7417 99.326 55.7817 99.4858 55.7942L100.185 55.8491C100.344 55.8617 100.46 55.8395 100.531 55.7826C100.602 55.7301 100.643 55.644 100.652 55.5242Z"
        fill="#FFC574" />
    <path
        d="M99.9784 58.1277L97.4802 57.7704C97.1762 57.7269 97.0063 57.8307 96.9704 58.0819C96.9344 58.333 97.0685 58.4803 97.3725 58.5238L99.8706 58.8811C100.175 58.9246 100.345 58.8208 100.38 58.5697C100.416 58.3185 100.282 58.1712 99.9784 58.1277ZM97.6305 57.0501L100.036 57.3942C100.406 57.4471 100.679 57.5828 100.855 57.8012C101.03 58.0197 101.092 58.3073 101.041 58.6642C100.99 59.0211 100.85 59.2798 100.62 59.4402C100.39 59.6007 100.09 59.6544 99.7203 59.6015L97.3147 59.2574C96.9447 59.2045 96.6718 59.0688 96.4963 58.8503C96.3207 58.6319 96.2584 58.3442 96.3095 57.9873C96.3605 57.6305 96.5009 57.3718 96.7307 57.2113C96.9605 57.0509 97.2604 56.9971 97.6305 57.0501Z"
        fill="#FFC574" />
    <path
        d="M95.9658 60.4169L97.9308 61.4697L98.9898 62.0058L95.7727 61.3109L95.6332 61.9569L100.201 62.9435L100.372 62.1539L98.6126 61.1593L97.664 60.6812L100.555 61.3056L100.693 60.6661L96.1251 59.6795L95.9658 60.4169ZM101.392 62.3608L101.298 62.798C101.072 62.7491 100.907 62.6453 100.805 62.4866C100.707 62.3289 100.685 62.126 100.739 61.878C100.791 61.6344 100.894 61.4632 101.048 61.3642C101.2 61.2697 101.393 61.2429 101.625 61.284L101.529 61.7278C101.41 61.7111 101.323 61.722 101.269 61.7605C101.22 61.7999 101.184 61.8696 101.163 61.9697C101.14 62.0741 101.145 62.1571 101.177 62.2187C101.209 62.2803 101.281 62.3276 101.392 62.3608Z"
        fill="#FFC574" />
    <path
        d="M94.8367 64.9161L96.8253 64.7573L96.4795 64.4188L95.1027 64.0132L95.3102 63.3088L99.793 64.6294L99.5854 65.3338L97.6322 64.7584L99.3138 66.256L99.1062 66.9604L97.3969 65.392L94.6235 65.6398L94.8367 64.9161Z"
        fill="#FFC574" />
    <path
        d="M96.0733 67.944L94.2789 66.6212L94.5419 65.9141L98.9219 67.5435L98.6938 68.1567L95.9219 67.1255L96.7924 67.7343L98.3912 68.9701L98.1095 69.7272L93.7296 68.0979L93.96 67.4784L97.0447 68.6259L96.0733 67.944Z"
        fill="#FFC574" />
    <path
        d="M96.008 74.4211C95.6733 75.0697 95.1638 75.2175 94.4796 74.8645L93.9397 74.5859C93.2554 74.2328 93.0807 73.7319 93.4154 73.0833L93.5745 72.7748L92.0142 71.9697L92.351 71.3171L96.5039 73.46L96.008 74.4211ZM95.4147 74.1149L95.5739 73.8064L94.1678 73.0809L94.0086 73.3894C93.9535 73.4962 93.9424 73.5906 93.9752 73.6727C94.0059 73.7586 94.0925 73.8384 94.2349 73.9118L94.8578 74.2333C95.0002 74.3067 95.1154 74.3311 95.2033 74.3063C95.2891 74.2855 95.3596 74.2217 95.4147 74.1149Z"
        fill="#FFC574" />
    <path
        d="M93.8306 76.1773L91.6637 74.8839C91.4 74.7265 91.2032 74.7567 91.0731 74.9746C90.9431 75.1924 91.01 75.38 91.2737 75.5374L93.4405 76.8308C93.7042 76.9882 93.9011 76.958 94.0311 76.7402C94.1611 76.5223 94.0943 76.3347 93.8306 76.1773ZM92.0802 74.2773L94.1669 75.5228C94.4879 75.7144 94.6872 75.9448 94.765 76.2141C94.8427 76.4834 94.7891 76.7728 94.6044 77.0823C94.4196 77.3919 94.1903 77.5764 93.9164 77.6358C93.6425 77.6952 93.345 77.6291 93.024 77.4374L90.9374 76.1919C90.6164 76.0003 90.417 75.7699 90.3393 75.5006C90.2616 75.2314 90.3151 74.942 90.4999 74.6324C90.6847 74.3228 90.914 74.1384 91.1879 74.079C91.4618 74.0196 91.7592 74.0857 92.0802 74.2773Z"
        fill="#FFC574" />
    <path
        d="M90.3098 78.2746L89.9178 78.8476L89.4054 78.4971C89.0931 78.2835 88.9053 78.0418 88.8418 77.7719C88.7821 77.5045 88.8527 77.2239 89.0537 76.93C89.2547 76.6362 89.4907 76.4686 89.7615 76.4274C90.036 76.3887 90.3294 76.4762 90.6417 76.6897L92.6474 78.0617C92.9596 78.2753 93.1456 78.5158 93.2054 78.7831C93.2689 79.053 93.2001 79.3349 92.999 79.6288C92.798 79.9227 92.5602 80.0889 92.2857 80.1276C92.0149 80.1689 91.7233 80.0827 91.4111 79.8691L91.0364 79.6128L91.4284 79.0397L91.8417 79.3224C92.0951 79.4958 92.2935 79.4778 92.4367 79.2684C92.5799 79.059 92.5248 78.8676 92.2713 78.6942L90.1885 77.2695C89.9387 77.0986 89.7422 77.1179 89.5989 77.3273C89.4557 77.5367 89.509 77.7268 89.7588 77.8977L90.3098 78.2746Z"
        fill="#FFC574" />
    <path
        d="M88.4363 80.8125L88.0076 81.3586L87.5192 80.9753C87.2216 80.7417 87.05 80.4882 87.0044 80.2147C86.9623 79.944 87.0511 79.6686 87.271 79.3885C87.4908 79.1085 87.7372 78.9567 88.0102 78.9334C88.2867 78.9127 88.5737 79.0192 88.8713 79.2528L90.7828 80.7533C91.0804 80.9869 91.2502 81.239 91.2923 81.5097C91.338 81.7832 91.2508 82.0599 91.031 82.34C90.8112 82.6201 90.563 82.7704 90.2865 82.791C90.0136 82.8144 89.7283 82.7093 89.4307 82.4757L89.0736 82.1954L89.5023 81.6493L89.8962 81.9584C90.1377 82.1481 90.3369 82.1431 90.4935 81.9435C90.6501 81.744 90.6077 81.5494 90.3661 81.3598L88.3811 79.8016C88.143 79.6147 87.9457 79.6211 87.789 79.8206C87.6324 80.0202 87.6731 80.2134 87.9111 80.4003L88.4363 80.8125Z"
        fill="#FFC574" />
    <path
        d="M86.9709 83.1774L85.793 81.2847L86.2989 80.7251L89.7656 83.8589L89.3269 84.3442L87.1329 82.361L87.7165 83.2485L88.7449 84.9881L88.2032 85.5873L84.7365 82.4535L85.1797 81.9632L87.6212 84.1703L86.9709 83.1774Z"
        fill="#FFC574" />
    <path
        d="M84.2774 85.9563L83.2564 83.9745L83.8059 83.4576L87.0078 86.8616L86.5313 87.3098L84.5049 85.1556L85.0148 86.0874L85.8991 87.9045L85.3107 88.4579L82.1088 85.054L82.5902 84.6011L84.8453 86.9985L84.2774 85.9563Z"
        fill="#FFC574" />
</svg>