<svg width="76" height="52" viewBox="0 0 76 52" fill="none" xmlns="http://www.w3.org/2000/svg">
<path d="M37.1953 52.0005V33.3775V32.6016H52.7408V39.5852L60.5135 32.6016H75.0615L63.968 41.9131L75.1953 52.0005H61.3771L52.7408 44.2409V52.0005H37.1953Z" fill="white"/>
<path d="M0 20.8929V0H10.4118L19.0884 8.70536L27.7649 0H37.3091V20.8929H22.559V18.2812H21.9437L19.0884 20.8929H18.2207L15.2535 18.2812H14.7501V20.8929H0Z" fill="white"/>
<path d="M40.1839 7.8V0H76V7.8L68.1379 15.6L75.1264 22.5333V30.3333H13.977V45.0667H34.9425V52H0V23.4H61.1494L53.2874 15.6L61.1494 7.8H40.1839Z" fill="white"/>
</svg>
