<svg width="80" height="20" viewBox="0 0 80 20" fill="none" xmlns="http://www.w3.org/2000/svg">
<g clip-path="url(#clip0_301_3807)">
<path fill-rule="evenodd" clip-rule="evenodd" d="M43.0131 4.84451C43.2055 5.04581 44.9373 9.84155 45.1183 10.4336C45.2987 11.068 45.5534 11.6765 45.8767 12.2453C46.4766 12.3874 46.5332 11.7598 46.7143 11.2625C47.699 8.57452 49.193 4.65505 49.9401 2.01443C50.4607 0.735566 50.506 0.392167 49.5666 0.392167C48.6271 0.392167 48.729 1.0316 48.3555 1.86049C48.0272 3.43539 46.7595 6.7628 46.2955 8.29033C46.2955 8.49164 46.2955 8.49164 46.0578 8.49164C45.2768 6.2181 44.3713 3.43539 43.4885 1.18554C43.2508 0.747407 42.832 0.652676 42.549 1.63551C42.0736 3.19856 41.4172 5.05765 40.9078 6.57334C40.9078 6.57334 40.2966 8.49164 40.2513 8.58637C39.9276 8.04188 39.6906 7.446 39.5496 6.82201C38.8478 5.01028 38.2366 3.05647 37.6367 1.24474C37.4896 0.901344 37.4896 0.700042 37.1614 0.498739C36.8323 0.371187 36.4766 0.33847 36.1314 0.404009C35.2032 0.557946 35.8031 1.33947 35.9955 1.9197C37.1274 5.10502 38.3838 8.92976 39.6401 11.9611C39.6695 12.0363 39.7174 12.1019 39.7788 12.1516C39.8402 12.2012 39.913 12.233 39.9899 12.2438C40.0668 12.2546 40.145 12.244 40.2168 12.2131C40.2885 12.1822 40.3512 12.132 40.3985 12.0677C40.5796 11.7006 42.8773 4.84451 43.0131 4.84451Z" fill="#353535"/>
<path fill-rule="evenodd" clip-rule="evenodd" d="M0.18238 0.593025C0.135593 0.790285 0.151486 0.998121 0.227655 1.18509C0.420071 2.01398 -0.14586 11.4634 0.00128249 11.8423C0.459431 12.0578 0.973095 12.1078 1.46138 11.9844C1.68776 11.7357 1.59721 11.4989 1.59721 11.1081C1.59721 9.4385 1.73303 7.82808 1.73303 6.11108C1.78962 5.47165 1.8349 5.03352 1.8349 4.64276C1.8349 4.25199 1.8349 4.29936 1.92545 4.20463C2.016 4.1099 3.49874 6.80972 3.64588 7.10575C3.92884 7.68598 4.48346 8.57408 4.85697 9.26088C5.4229 10.3384 5.70587 9.60427 5.84169 9.35561C6.16993 8.91748 8.7053 4.26384 8.8864 4.16911C9.05618 4.35857 9.05618 9.01221 9.05618 9.35561C9.05618 11.9015 8.77321 12.1502 10.3125 12.0436C10.7879 12.0436 10.8332 11.6528 10.7879 11.2147C10.7879 10.3858 10.7879 9.45034 10.7879 8.62144C10.6634 6.51369 10.5729 4.1099 10.5729 2.01398C10.5729 1.76532 10.6634 0.829851 10.6634 0.687755C10.5249 0.524397 10.3372 0.415406 10.1313 0.378802C9.92553 0.342199 9.71394 0.380175 9.53156 0.486453C9.20332 0.687755 9.11277 1.12588 8.87508 1.42192C7.92432 3.18628 6.64531 5.18746 5.75114 6.85709C5.4229 7.44915 5.4229 7.24785 5.13994 6.85709C4.52873 5.92162 3.73643 4.3112 3.18181 3.37574L2.04995 1.42192C1.89262 1.08238 1.69071 0.767514 1.45007 0.486453C1.13314 0.249626 0.51062 0.439087 0.18238 0.593025Z" fill="#353535"/>
<path fill-rule="evenodd" clip-rule="evenodd" d="M59.9076 6.07541C60.3082 5.73345 60.7834 5.50044 61.2909 5.39714C61.7984 5.29384 62.3225 5.32345 62.8164 5.48335C64.3105 6.17014 64.5029 8.4792 63.8464 9.60413C63.5668 10.0425 63.1641 10.3794 62.6937 10.5681C62.2234 10.7569 61.7086 10.7883 61.2205 10.658C60.7477 10.5604 60.3001 10.3585 59.9076 10.0659V6.07541ZM59.9076 4.40579C59.837 3.11614 59.837 1.82332 59.9076 0.533674C59.9076 0.000814543 59.7265 -0.093916 59.2511 0.0955451C58.1192 0.592881 58.1192 0.391578 58.2777 1.46914C58.3682 2.01384 58.2777 8.32527 58.2777 9.21337C58.2777 10.9659 58.04 11.3685 60.4735 12.1026C61.1664 12.2547 61.8816 12.2586 62.576 12.1141C63.2704 11.9696 63.9297 11.6798 64.5142 11.2619C66.9025 9.21337 66.246 3.4348 61.8883 3.87293C61.5085 3.89443 61.1304 3.9419 60.7565 4.01502C60.6093 4.06239 60.0547 4.40579 59.9868 4.40579H59.9076Z" fill="#353535"/>
<path fill-rule="evenodd" clip-rule="evenodd" d="M26.9039 11.9486C27.0809 11.3311 27.1311 10.6814 27.0511 10.0422C27.0047 9.37204 27.0047 8.69928 27.0511 8.02915C27.1869 8.02915 27.334 8.27782 27.617 8.57385C27.9 8.86988 30.2316 11.4158 30.6051 11.7C30.7354 11.8268 30.8925 11.9198 31.0636 11.9712C31.2347 12.0227 31.415 12.0311 31.5898 11.996C31.9181 11.996 32.4387 11.996 32.6198 11.7592C32.6198 11.4158 31.9633 10.8711 31.6804 10.575C31.3974 10.279 31.0352 9.90008 30.707 9.49748C29.987 8.83463 29.3137 8.11834 28.6923 7.3542C28.6923 7.24762 31.2616 4.98593 31.737 4.55964C31.9181 4.35834 32.1105 4.31097 32.0652 4.01494C31.4826 3.82693 30.8594 3.82693 30.2769 4.01494C30.0505 4.12151 28.4998 5.58984 28.081 5.9806C27.9452 6.1227 27.1416 7.0108 27.0511 6.96343C26.9152 6.51346 27.0511 0.391495 26.9605 0.0480967C26.87 -0.295302 25.274 0.249399 25.3193 0.841466C25.408 1.25746 25.4536 1.68226 25.4551 2.10849V10.575C25.4551 10.8711 25.3646 11.7592 25.557 11.9013C25.9974 12.019 26.457 12.0352 26.9039 11.9486Z" fill="#353535"/>
<path fill-rule="evenodd" clip-rule="evenodd" d="M14.7099 7.93276C15.2305 7.79066 16.9736 8.22879 17.0528 8.71429C17.0981 9.23818 17.0981 9.76528 17.0528 10.2892C16.7246 10.7273 14.4722 11.6036 13.7252 10.0405C13.6245 9.81847 13.5723 9.57579 13.5723 9.33004C13.5723 9.08428 13.6245 8.8416 13.7252 8.61956C13.8339 8.43902 13.9778 8.28452 14.1474 8.16617C14.3171 8.04782 14.5088 7.96828 14.7099 7.93276ZM17.0981 7.34069C16.6583 7.03587 16.1664 6.82277 15.6493 6.7131C15.005 6.63846 14.3531 6.6866 13.7252 6.8552C13.1965 7.01362 12.7303 7.34533 12.3952 7.80157C12.0602 8.2578 11.8739 8.81448 11.8637 9.38974C11.8536 9.965 12.0201 10.5285 12.3389 10.9973C12.6577 11.4662 13.1119 11.8156 13.6346 11.9943C14.5299 12.3137 15.5011 12.3137 16.3964 11.9943C16.5888 11.8996 16.9623 11.6509 17.0981 11.6036C17.2339 11.5562 17.2905 11.947 17.4716 12.0417C17.6527 12.1364 18.5016 12.0417 18.7393 11.8049C18.977 11.568 19.0223 11.6036 18.8751 11.2602C18.6561 10.8071 18.577 10.294 18.6488 9.79185V6.26313C18.708 5.76349 18.5913 5.25838 18.3205 4.84217C17.4264 2.98308 12.0387 3.71725 12.4688 5.29214C12.8989 6.86704 13.6007 4.74744 15.9776 5.04348C17.2566 5.18557 17.1208 6.46443 17.1208 7.34069H17.0981Z" fill="#353535"/>
<path fill-rule="evenodd" clip-rule="evenodd" d="M72.5074 7.1049H68.6252C68.6772 6.61869 68.8893 6.16657 69.225 5.82604C69.5916 5.48977 70.0521 5.28627 70.538 5.24581C70.7911 5.22394 71.0459 5.25565 71.287 5.33907C71.5282 5.42248 71.7508 5.55588 71.9415 5.73131C72.1336 5.8966 72.2851 6.10747 72.3835 6.34638C72.482 6.5853 72.5244 6.84534 72.5074 7.1049ZM68.5233 8.37192C68.8063 8.22982 73.0507 8.37192 73.8204 8.37192C74.5901 8.37192 74.2392 5.73131 72.8357 4.65374C72.2623 4.20653 71.5797 3.93808 70.8667 3.87941C70.1537 3.82073 69.4394 3.97421 68.8062 4.32214C68.173 4.67006 67.6468 5.19823 67.2883 5.84568C66.9298 6.49313 66.7537 7.23344 66.7802 7.98116C66.7534 8.70738 66.9149 9.42766 67.2477 10.0656C67.5805 10.7035 68.0721 11.2354 68.6704 11.6046C69.9268 12.4927 73.2997 12.4453 73.7185 11.0717C74.2392 9.30738 73.0168 10.2902 72.5867 10.4797C72.225 10.6348 71.8438 10.7345 71.4548 10.7757C68.9534 11.0717 68.3422 8.76268 68.5233 8.37192Z" fill="#353535"/>
<path fill-rule="evenodd" clip-rule="evenodd" d="M51.5324 7.104C51.5721 6.59824 51.7918 6.12652 52.1482 5.78223C52.5045 5.43794 52.9715 5.24617 53.4565 5.24491C54.4299 5.13834 55.5618 6.02644 55.3694 7.104H51.5324ZM51.3399 8.28813C51.5776 8.28813 55.9806 8.28813 56.5918 8.28813C57.203 8.28813 57.1011 7.89737 57.0558 7.41187C57.0228 6.75439 56.827 6.11716 56.4878 5.56262C56.1485 5.00807 55.6774 4.55522 55.1206 4.24843C54.5638 3.94164 53.9403 3.79142 53.3113 3.8125C52.6823 3.83357 52.0693 4.02521 51.5324 4.36865C50.9286 4.74181 50.4349 5.28185 50.1054 5.92945C49.7759 6.57704 49.6235 7.30712 49.6648 8.03946C49.6167 8.76239 49.7723 9.48419 50.1123 10.1156C50.4523 10.747 50.9617 11.2602 51.5776 11.5919C53.1736 12.6221 56.3088 12.1839 56.5918 11.0116C56.5918 10.6682 56.8182 9.82751 56.3088 10.0288C55.6936 10.3927 55.0238 10.6449 54.3281 10.7748C53.9572 10.8267 53.5801 10.801 53.2187 10.6994C52.8574 10.5978 52.5189 10.4222 52.2228 10.1827C51.8153 9.83935 51.1588 8.80915 51.3399 8.28813Z" fill="#353535"/>
<path fill-rule="evenodd" clip-rule="evenodd" d="M76.7615 11.9962C77.0444 11.7002 76.9992 11.5581 76.9992 11.1199V9.93581C76.9992 8.37275 76.7162 5.7795 78.4479 5.38874C78.8214 5.29401 78.912 5.62556 79.3874 5.53083C79.6677 5.2677 79.8783 4.93322 79.9986 4.55984C79.9986 3.81384 78.8667 3.67174 77.8367 4.15724C77.5085 4.31118 77.2368 4.84404 76.9992 4.8914C76.9992 4.45327 77.0897 4.26381 76.8067 3.87305C76.4439 3.90944 76.0928 4.02652 75.7767 4.21645C75.3127 4.45327 75.2221 4.45327 75.3127 5.04534C75.4032 5.63741 75.3127 9.69898 75.3127 10.67C75.358 12.1501 75.3579 12.1028 76.7615 11.9962Z" fill="#353535"/>
<path fill-rule="evenodd" clip-rule="evenodd" d="M21.5742 11.9488V11.8541C21.7056 10.6514 21.7397 9.43929 21.6761 8.23063C21.6761 7.29517 21.9025 5.77948 22.8872 5.48344C23.6795 5.18741 23.7248 5.96894 24.2454 5.48344C25.4565 4.15721 23.8266 3.62436 22.8419 4.06248C21.8572 4.50061 21.993 4.84401 21.7101 4.93874C21.6873 4.74607 21.6873 4.55119 21.7101 4.35852C21.7101 4.10985 21.6082 4.10985 21.5176 3.96775C21.1547 3.96466 20.7981 4.06715 20.4876 4.26379C20.0236 4.45325 19.8764 4.50061 20.0236 5.09268C20.1231 6.0005 20.1534 6.91517 20.1141 7.82803V10.5278C20.216 11.9962 20.0236 12.1027 21.5742 11.9488Z" fill="#353535"/>
<path fill-rule="evenodd" clip-rule="evenodd" d="M42.6851 13.5247C40.8166 13.7659 38.9793 14.2226 37.2069 14.8865C36.6522 15.1351 36.075 15.2772 35.5204 15.5259C34.3885 15.964 33.3246 16.3548 32.204 16.8047C31.8305 16.9468 29.1593 17.7757 28.6953 17.8823C26.4315 18.4625 23.0359 19.1493 20.8741 18.1191C19.8441 17.5863 19.7422 19.2441 22.0852 19.8361C23.4553 20.0872 24.8613 20.0225 26.2052 19.6467C27.337 19.398 28.6953 18.9599 29.7705 18.6165C30.8458 18.2731 32.1135 17.8823 33.2793 17.5389C33.5623 17.4323 33.7886 17.3376 34.1169 17.2429L35.8486 16.6982C36.1769 16.6034 36.4146 16.4614 36.6975 16.3548L38.4859 15.9166C38.8141 15.8219 39.0518 15.7272 39.3348 15.6206C41.7045 15.0917 44.1216 14.8297 46.5447 14.8391C47.1446 14.8391 48.0388 14.993 48.65 15.0878C49.7818 15.2299 49.5328 14.6023 48.7858 14.1997C46.8435 13.4211 44.7401 13.1884 42.6851 13.5247Z" fill="#353535"/>
</g>
<defs>
<clipPath id="clip0_301_3807">
<rect width="80" height="20" fill="white"/>
</clipPath>
</defs>
</svg>
