<svg id="Layer_1" data-name="Layer 1" xmlns="http://www.w3.org/2000/svg" viewBox="0 0 24 25"><path d="M18.33,23a8.81,8.81,0,0,1-4.13-1.41,26.82,26.82,0,0,1-6.48-4.84,24.85,24.85,0,0,1-4.86-6.48C1.13,7.13,1.43,5.48,1.76,4.78A4.4,4.4,0,0,1,3.47,2.94a8.74,8.74,0,0,1,1.35-.72L5,2.17a1.25,1.25,0,0,1,1-.1,3.06,3.06,0,0,1,1,.75A16.33,16.33,0,0,1,9.4,6.45a3.59,3.59,0,0,1,.48,1.49,2.35,2.35,0,0,1-.6,1.4l-.18.24c-.36.47-.44.6-.39.85a9.09,9.09,0,0,0,2.17,3.21,8.61,8.61,0,0,0,3.17,2.11c.26.05.39,0,.88-.4l.21-.16a2.38,2.38,0,0,1,1.42-.63h0a3.35,3.35,0,0,1,1.5.52,17.33,17.33,0,0,1,3.61,2.43,3.1,3.1,0,0,1,.76,1,1.26,1.26,0,0,1-.1,1s0,.08,0,.13A8.21,8.21,0,0,1,21.56,21a4.39,4.39,0,0,1-1.85,1.72A3.26,3.26,0,0,1,18.33,23Z"/></svg>