<svg id="Layer_1" data-name="Layer 1" xmlns="http://www.w3.org/2000/svg" viewBox="0 0 64 76">
    <defs>
        <style>
            .cls-1 {
                fill: #2274e0;
                fill-rule: evenodd;
            }

            .cls-2 {
                fill: #fff;
            }
        </style>
    </defs>
    <path class="cls-1"
        d="M54,9.44A31.76,31.76,0,0,1,54,54L34.57,73.6c-2.87,2.9-2.27,2.9-5.13,0L10,54A31.76,31.76,0,0,1,10,9.44,30.84,30.84,0,0,1,54,9.44Z" />
    <path class="cls-2" d="M31.67,41.7V34H38v2.79L41.12,34H47l-4.5,3.72,4.55,4h-5.6L38,38.6v3.1Z" />
    <path class="cls-2"
        d="M16.62,29.28V20.93h4.21l3.51,3.48,3.52-3.48h3.86v8.35h-6V28.23H25.5l-1.16,1.05H24l-1.2-1.05h-.2v1.05Z" />
    <path class="cls-2"
        d="M32.88,24.05V20.93h14.5v3.12L44.2,27.16,47,29.93v3.12H22.27v5.88h8.49V41.7H16.62V30.28H41.37l-3.18-3.12,3.18-3.11Z" />
</svg>