<svg width="51" height="36" viewBox="0 0 51 36" fill="none" xmlns="http://www.w3.org/2000/svg">
<path fill-rule="evenodd" clip-rule="evenodd" d="M31.0008 0.112266C30.9324 0.174636 29.9875 0.692308 28.8934 1.25988C27.7994 1.82744 26.1085 2.72557 25.1326 3.25572L22.0928 4.87734C16.0132 8.10811 2.6668 15.1996 1.4857 15.842L0 16.6466V19.0229L1.61624 18.1622L15.46 10.7963L17.6419 9.62994L19.6871 8.53846L21.552 7.54678C22.9196 6.80457 25.4061 5.46985 28.2718 3.94802C29.0302 3.54262 29.9813 3.02495 30.3854 2.80042C30.6869 2.61793 31.0137 2.48131 31.3551 2.39501C31.5789 2.39501 34.5627 3.95426 39.3679 6.58004C40.2009 7.03534 42.7558 8.40748 45.0496 9.62994C47.3435 10.8524 49.513 12.0187 49.8797 12.2245C50.5386 12.5925 50.5697 12.5988 50.5946 12.3555V12.1559C50.5946 12.1559 50.5946 11.8503 50.5946 11.1518L50.5573 10.0665L47.6543 8.60707L44.7823 7.14761V0H42.2958V2.7131C42.3328 3.64616 42.2933 4.5807 42.1777 5.50728C42.0845 5.56341 37.2792 3.08108 32.5548 0.517671C31.5665 0 31.2059 -0.0997921 31.0008 0.112266ZM28.2718 9.64241L21.1355 13.4407C20.1533 13.9647 19.2706 14.4449 19.1898 14.5135C19.109 14.5821 19.0219 16.6216 19.0219 23.7318V32.8191L22.0244 32.7817L25.0331 32.7443V22.7651L26.3137 22.7276L27.5942 22.6902V32.7942H33.7422V19.7775C33.7422 12.6175 33.7422 6.76091 33.6738 6.76091C33.6054 6.76091 31.2121 8.07069 28.2718 9.64241ZM35.9303 21.9792V36H50.5946V33.0125C50.5946 31.3659 50.5946 29.9439 50.5946 29.894C50.5946 29.8441 49.3513 29.8129 47.7227 29.7942L44.7823 29.7568V32.8191H42.0099V24.0873C42.0099 19.3035 42.0099 15.3867 42.072 15.3867C42.1342 15.3867 42.6937 15.6923 43.3899 16.0603L44.6331 16.7401V19.5717L47.6045 19.5343L50.5759 19.4906V16.0104C50.5759 16.0104 50.3522 15.6362 47.9962 14.3825L36.1603 8.10811C35.9738 7.96466 35.9303 8.66944 35.9303 21.9792ZM27.7434 16.8025V19.659H25.1015V15.3368L26.3883 14.6445C27.0969 14.264 27.6875 13.9522 27.7061 13.9522C27.7248 13.9522 27.7434 15.237 27.7434 16.8025ZM14.5275 16.8399L7.32904 20.5821C6.8193 20.8565 5.46414 21.5738 4.25818 22.185L2.11355 23.3015V36H8.18689V34.5717C8.18689 33.7859 8.18689 33.0686 8.18689 32.9813C8.18689 32.894 9.08825 32.8129 12.3953 32.8129H16.6411V24.4428C16.6411 19.8399 16.6411 16.0291 16.6411 15.9792C16.7032 15.7422 16.324 15.8794 14.5275 16.8399ZM10.574 26.4449V29.8254H9.87151C9.46889 29.8328 9.06619 29.8162 8.66554 29.7755L8.16824 29.7131V26.975V24.2308L9.31204 23.6071C9.69354 23.3878 10.088 23.192 10.4931 23.0208C10.4931 23.0208 10.5615 24.5863 10.574 26.4449Z" fill="white"/>
</svg>
