<svg width="53" height="36" viewBox="0 0 53 36" fill="none" xmlns="http://www.w3.org/2000/svg">
<path d="M25.9395 36.0004V23.1075V22.5703H36.7804V27.4051L42.2008 22.5703H52.3461L44.6099 29.0167L52.4395 36.0004H42.8031L36.7804 30.6283V36.0004H25.9395Z" fill="white"/>
<path d="M0 14.4643V0H7.26089L13.3116 6.02679L19.3624 0H26.0182V14.4643H15.7319V12.6562H15.3028L13.3116 14.4643H12.7066L10.6373 12.6562H10.2863V14.4643H0Z" fill="white"/>
<path d="M28.023 5.4V0H53V5.4L47.5172 10.8L52.3908 15.6V21H9.74713V31.2H24.3678V36H0V16.2H42.6437L37.1609 10.8L42.6437 5.4H28.023Z" fill="white"/>
</svg>
