<svg id="Layer_1" data-name="Layer 1" xmlns="http://www.w3.org/2000/svg" viewBox="0 0 24 25"><path d="M19.88,4.25H4.13A2.63,2.63,0,0,0,1.5,6.88V18.13a2.63,2.63,0,0,0,2.63,2.62H19.88a2.63,2.63,0,0,0,2.62-2.62V6.88a2.63,2.63,0,0,0-2.62-2.63Zm-.67,4.34-6.75,5.25a.74.74,0,0,1-.92,0L4.79,8.59a.7.7,0,0,1-.2-.22.66.66,0,0,1-.09-.28.7.7,0,0,1,0-.29.68.68,0,0,1,.13-.27.79.79,0,0,1,.22-.19.76.76,0,0,1,.28-.09,1,1,0,0,1,.3,0,.94.94,0,0,1,.26.14L12,12.3l6.29-4.89a.77.77,0,0,1,.55-.15.74.74,0,0,1,.49.29.75.75,0,0,1,.16.54A.79.79,0,0,1,19.21,8.59Z"/></svg>