<svg width="45" height="30" viewBox="0 0 45 30" fill="none" xmlns="http://www.w3.org/2000/svg">
<path fill-rule="evenodd" clip-rule="evenodd" d="M24.0698 0.0635294C24.0314 0.0988235 23.5012 0.391765 22.8872 0.712941C22.2733 1.03412 21.3244 1.54235 20.7767 1.84235L19.0709 2.76C15.6593 4.58823 8.16977 8.60118 7.50698 8.96471L6.67326 9.42V10.7647L7.58023 10.2776L15.3488 6.10941L16.5733 5.44941L17.7209 4.83176L18.7674 4.27059C19.5349 3.85059 20.9302 3.09529 22.5384 2.23412C22.964 2.00471 23.4977 1.71176 23.7244 1.58471C23.8936 1.48144 24.077 1.40413 24.2686 1.35529C24.3942 1.35529 26.0686 2.23765 28.7651 3.72353C29.2326 3.98118 30.6663 4.75765 31.9535 5.44941C33.2407 6.14118 34.4581 6.80118 34.664 6.91765C35.0337 7.12588 35.0512 7.12941 35.0651 6.99176V6.87882C35.0651 6.87882 35.0651 6.70588 35.0651 6.31059L35.0442 5.69647L33.4151 4.87059L31.8035 4.04471V0H30.4081V1.53529C30.4289 2.0633 30.4067 2.59214 30.3419 3.11647C30.2895 3.14824 27.593 1.74353 24.9419 0.292941C24.3872 0 24.1849 -0.0564706 24.0698 0.0635294ZM22.5384 5.45647L18.5337 7.60588C17.9826 7.90235 17.4872 8.17412 17.4419 8.21294C17.3965 8.25176 17.3477 9.40588 17.3477 13.4294V18.5718L19.0326 18.5506L20.7209 18.5294V12.8824L21.4395 12.8612L22.1581 12.84V18.5576H25.6081V11.1918C25.6081 7.14 25.6081 3.82588 25.5698 3.82588C25.5314 3.82588 24.1884 4.56706 22.5384 5.45647ZM26.836 12.4376V20.3718H35.0651V18.6812C35.0651 17.7494 35.0651 16.9447 35.0651 16.9165C35.0651 16.8882 34.3674 16.8706 33.4535 16.86L31.8035 16.8388V18.5718H30.2477V13.6306C30.2477 10.9235 30.2477 8.70706 30.2826 8.70706C30.3174 8.70706 30.6314 8.88 31.0221 9.08823L31.7198 9.47294V11.0753L33.3872 11.0541L35.0546 11.0294V9.06C35.0546 9.06 34.9291 8.84823 33.607 8.13882L26.9651 4.58823C26.8605 4.50706 26.836 4.90588 26.836 12.4376ZM22.2419 9.50823V11.1247H20.7593V8.67882L21.4814 8.28706C21.8791 8.07176 22.2105 7.89529 22.2209 7.89529C22.2314 7.89529 22.2419 8.62235 22.2419 9.50823ZM14.8256 9.52941L10.786 11.6471C10.5 11.8024 9.73953 12.2082 9.06279 12.5541L7.8593 13.1859V20.3718H11.2674V19.5635C11.2674 19.1188 11.2674 18.7129 11.2674 18.6635C11.2674 18.6141 11.7733 18.5682 13.6291 18.5682H16.0116V13.8318C16.0116 11.2271 16.0116 9.07059 16.0116 9.04235C16.0465 8.90823 15.8337 8.98588 14.8256 9.52941ZM12.607 14.9647V16.8776H12.2128C11.9869 16.8819 11.7609 16.8724 11.536 16.8494L11.257 16.8141V15.2647V13.7118L11.8988 13.3588C12.1129 13.2348 12.3343 13.124 12.5616 13.0271C12.5616 13.0271 12.6 13.9129 12.607 14.9647ZM42.2581 22.8988C42.2772 23.0439 42.3258 23.1835 42.4008 23.3086C42.4759 23.4337 42.5758 23.5418 42.6942 23.6259C42.8988 23.7195 43.1216 23.7656 43.3462 23.7607C43.5708 23.7559 43.7914 23.7001 43.9919 23.5976C44.2082 23.4193 44.3553 23.1692 44.407 22.8918C44.407 22.8 44.3337 22.7753 44.093 22.7859C43.8523 22.7965 43.7442 22.8282 43.664 23.0294C43.4826 23.4141 43.0779 23.3824 42.9174 22.9482C42.8651 22.8071 42.7988 22.7753 42.5686 22.7753C42.3384 22.7753 42.2581 22.8071 42.2581 22.8988ZM0.746512 24.0282C0.603488 24.0282 0.376744 24.0741 0.244186 24.0988L0 24.1376V26.8588C0 28.3553 0.0209302 29.6576 0.0453488 29.7494C0.0872093 29.9047 0.136046 29.9188 0.603488 29.9188H1.11279V27.7624L1.64302 27.6741C1.88933 27.6598 2.12968 27.5919 2.34763 27.4749C2.56558 27.358 2.75598 27.1948 2.90581 26.9965C3.11354 26.668 3.23252 26.2901 3.25088 25.9006C3.26924 25.5111 3.18635 25.1235 3.01047 24.7765C2.68256 24.2118 1.76512 23.9082 0.743023 24.0282H0.746512ZM8.79419 24.1059C8.16706 24.3776 7.66738 24.8831 7.39884 25.5176C7.24186 25.92 7.22093 26.0859 7.22093 27.06C7.22093 28.0341 7.24186 28.2 7.39186 28.5812C7.5463 29.0278 7.84622 29.408 8.2424 29.6594C8.63858 29.9108 9.10747 30.0185 9.57209 29.9647C9.74336 29.9518 9.91286 29.921 10.0779 29.8729C10.1629 29.5983 10.1629 29.304 10.0779 29.0294C10.0395 28.9659 9.94884 28.9482 9.81977 28.98C9.53216 29.0294 9.23664 28.9696 8.99002 28.8119C8.74339 28.6542 8.56307 28.4099 8.48372 28.1259C8.22701 27.2952 8.27153 26.3992 8.6093 25.5988C8.69893 25.3938 8.85059 25.2228 9.04242 25.1105C9.23425 24.9982 9.45636 24.9505 9.67674 24.9741C10.1093 25.0094 10.1128 25.0059 10.186 24.4412C10.2314 24.0882 10.2314 24.0882 9.99419 24.0247C9.59229 23.9558 9.17999 23.9836 8.7907 24.1059H8.79419ZM18.7221 24.0494L18.3523 24.0953L18.3314 27.0106V29.9259L18.8372 29.9047L19.3605 29.8835V28.8035V27.7235L19.657 27.6953C20.5012 27.6247 21.143 27.1941 21.3558 26.5624C21.5253 26.0278 21.513 25.4513 21.3209 24.9247C21.1261 24.5612 20.8076 24.2816 20.4244 24.1376C19.8628 24.0267 19.2885 23.9969 18.7186 24.0494H18.7221ZM23.1384 24.1482C22.0709 24.7271 21.6209 27.0494 22.2488 28.7365C22.6535 29.8235 23.6093 30.2682 24.5337 29.7953C25.2802 29.4141 25.6535 28.4212 25.6535 26.8165C25.6631 26.0822 25.4992 25.3562 25.1756 24.6988C25.0512 24.4837 24.8727 24.3056 24.6582 24.1829C24.4438 24.0602 24.201 23.997 23.9546 24C23.6727 23.9531 23.3833 24.0054 23.1349 24.1482H23.1384ZM27.7744 24.1024C27.1622 24.3734 26.6756 24.8708 26.414 25.4929C26.0985 26.4504 26.0718 27.4812 26.3372 28.4541C26.4728 28.9531 26.7874 29.3831 27.2197 29.6598C27.6519 29.9366 28.1706 30.0403 28.6744 29.9506C29.1523 29.8729 29.1837 29.82 29.1035 29.2765L29.0547 28.9412L28.7058 28.9835C28.4627 29.0163 28.2158 28.9643 28.0058 28.8359C27.7959 28.7076 27.6355 28.5107 27.5512 28.2776C27.2023 27.5294 27.2442 26.0259 27.6523 25.4541C27.7597 25.2813 27.9125 25.1422 28.0937 25.0524C28.2748 24.9626 28.4772 24.9257 28.6779 24.9459L29.0651 24.9776L29.1488 24.5682C29.2116 24.2718 29.2116 24.1341 29.1488 24.0776C29.0128 23.9753 28.1721 23.9718 27.7709 24.1024H27.7744ZM34.1442 24.0282C33.9802 24.0282 33.7709 24.0741 33.6802 24.0953L33.5128 24.1341V29.9188H34.6221L34.6395 28.8212L34.6605 27.72L35.0337 27.6918C35.3017 27.6739 35.5626 27.597 35.7982 27.4666C36.0337 27.3361 36.2383 27.1552 36.3977 26.9365C36.6677 26.5373 36.7717 26.0467 36.6872 25.5706C36.6349 24.6071 36.0837 24.1059 34.9953 24.0353C34.7109 24.0155 34.4255 24.0131 34.1407 24.0282H34.1442ZM38.4384 24.12C37.3221 24.6494 36.8407 26.7318 37.3919 28.62C37.7407 29.7635 38.7279 30.2753 39.7116 29.8094C39.9569 29.6733 40.1701 29.4852 40.3369 29.258C40.5037 29.0308 40.62 28.7698 40.6779 28.4929C40.8645 27.4663 40.8645 26.4137 40.6779 25.3871C40.5281 24.9145 40.2472 24.4955 39.8686 24.18C39.6475 24.0677 39.4053 24.0043 39.1581 23.9939C38.9109 23.9836 38.6644 24.0265 38.4349 24.12H38.4384ZM4.12674 26.1353C4.50698 27.2788 4.82442 28.2529 4.82442 28.3412C4.79673 28.4801 4.7396 28.6114 4.65698 28.7259C4.60508 28.8131 4.53464 28.8874 4.45076 28.9436C4.36688 28.9998 4.27169 29.0363 4.17209 29.0506L3.85465 29.1247L3.87558 29.5412L3.9 29.9576L4.21046 29.9788C4.42022 29.9832 4.62806 29.9376 4.81714 29.8456C5.00623 29.7537 5.17125 29.6179 5.29884 29.4494C5.60581 29.0435 5.77674 28.5494 6.4186 26.2729L7.02907 24.0953L6.5093 24.0706C6.18488 24.0706 5.9686 24.0706 5.93721 24.1306C5.90581 24.1906 5.72791 25.14 5.44186 26.8941C5.4 27.1623 5.27093 27.2471 5.27093 26.9859C5.27093 26.8588 4.90465 25.2424 4.67093 24.3388L4.59767 24.0565H3.43256L4.12674 26.1353ZM11.236 26.8235C10.9151 28.3412 10.636 29.6471 10.6186 29.7529C10.5837 29.9153 10.6186 29.9223 11.1105 29.9223C11.6023 29.9223 11.6407 29.9224 11.6721 29.7529C11.693 29.6612 11.7523 29.3647 11.8081 29.0965L11.9093 28.5882H12.4395C12.9384 28.5671 12.9698 28.5882 13.0047 28.74C13.0256 28.8353 13.0884 29.1318 13.1407 29.4L13.2558 29.8835L13.7826 29.9047L14.3058 29.9259L14.2151 29.4529C14.1663 29.1918 13.9151 27.8718 13.6535 26.5165L13.1791 24.0459H11.8221L11.236 26.8235ZM14.9756 26.9929V29.9223H16.0849L16.1058 27.4518V24.9812H17.5884L17.6128 24.5118L17.6337 24.0424H14.9756V26.9929ZM29.7 24.1694C29.6693 24.2845 29.6541 24.4032 29.6547 24.5224C29.6547 24.9741 29.6965 25.0129 30.2163 25.0129H30.6977V29.9188H31.8105V27.4941L31.8419 25.0588H32.3407L32.843 25.0376V24.0565H31.2942C29.9477 24.0565 29.7384 24.0706 29.7 24.1765V24.1694ZM41.6651 26.9929V29.9259L42.1605 29.9047L42.6593 29.8835L43.1651 28.5671C43.4442 27.8612 43.7547 26.9894 43.8628 26.6682C43.919 26.4664 43.9962 26.2712 44.093 26.0859C44.122 26.6479 44.122 27.211 44.093 27.7729C44.0651 28.6976 44.0616 29.5624 44.093 29.6894C44.1419 29.9153 44.1523 29.9188 44.5814 29.9188H45V24.0494L44.5012 24.0706L44.0058 24.0953L43.3081 25.9341C42.9314 26.9471 42.5895 27.8294 42.5442 27.8894C42.4988 27.9494 42.4709 27.8894 42.4988 27.5365C42.5267 27.1835 42.5616 24.7129 42.5442 24.1341C42.5442 24.0706 42.4012 24.0424 42.0942 24.0424H41.6512L41.6651 26.9929ZM1.8314 25.0306C2.02566 25.182 2.15917 25.3995 2.20727 25.6428C2.25536 25.8861 2.21478 26.1387 2.09302 26.3541C2.03443 26.508 1.92681 26.6377 1.78718 26.7227C1.64755 26.8077 1.48389 26.8432 1.32209 26.8235C1.15465 26.7988 1.14767 26.7812 1.12674 25.9024C1.10581 24.9635 1.12674 24.8859 1.44419 24.8859C1.58244 24.9037 1.71487 24.9532 1.8314 25.0306ZM20.0686 25.0306C20.7663 25.4718 20.3686 26.94 19.5593 26.8235C19.3919 26.7988 19.3849 26.7812 19.3709 25.9341C19.3518 25.6156 19.3518 25.2962 19.3709 24.9776C19.4337 24.8365 19.8 24.8647 20.0686 25.0306ZM35.3686 25.0765C35.5181 25.277 35.6068 25.5171 35.6242 25.7677C35.6415 26.0183 35.5867 26.2686 35.4663 26.4882C35.3901 26.5947 35.2906 26.6819 35.1757 26.7431C35.0607 26.8044 34.9334 26.8379 34.8035 26.8412H34.6221V24.8647L34.9221 24.9035C35.0821 24.9255 35.235 24.9847 35.3686 25.0765ZM24.0698 25.0165C24.3872 25.2282 24.5686 26.4671 24.4605 27.6635C24.3698 28.6729 24.1674 29.0541 23.7628 29.0047C23.5953 28.9835 23.5186 28.9059 23.3721 28.6024C23.2256 28.2988 23.1837 28.1047 23.1593 27.2471C23.1174 25.7647 23.3407 24.9565 23.7942 24.96C23.889 24.9582 23.9831 24.9775 24.0698 25.0165ZM39.3837 25.1259C39.5826 25.44 39.6698 25.8318 39.7326 26.5729C39.8023 27.7624 39.6 28.7294 39.2302 28.9659C38.9965 29.1141 38.7174 28.9659 38.5326 28.5812C38.3895 28.2671 38.3721 28.0976 38.3721 27.1024C38.3721 25.86 38.4105 25.5671 38.6302 25.2035C38.7488 25.0024 38.8256 24.9565 39.0279 24.9565C39.0964 24.9487 39.1657 24.9604 39.2279 24.9903C39.2902 25.0203 39.3429 25.0672 39.3802 25.1259H39.3837ZM12.6349 26.1176C12.7116 26.6259 12.7953 27.1765 12.8267 27.3565C12.8501 27.4729 12.8501 27.593 12.8267 27.7094C12.682 27.7461 12.5327 27.7603 12.3837 27.7518C11.986 27.7518 11.986 27.7518 12.0349 27.5435C12.1395 27.0388 12.3837 25.5388 12.3837 25.3765C12.3837 25.2741 12.4116 25.1929 12.443 25.1929C12.546 25.4915 12.6105 25.8023 12.6349 26.1176Z" fill="white"/>
</svg>
